<?xml version="1.0" encoding="UTF-8" standalone="no"?>
<svg
   width="842.71094pt"
   height="815.74219pt"
   viewBox="0 0 842.71095 815.7422"
   version="1.1"
   id="svg373"
   sodipodi:docname="2022-04-18_five_star.svg"
   inkscape:version="1.1.1 (3bf5ae0d25, 2021-09-20)"
   xmlns:inkscape="http://www.inkscape.org/namespaces/inkscape"
   xmlns:sodipodi="http://sodipodi.sourceforge.net/DTD/sodipodi-0.dtd"
   xmlns="http://www.w3.org/2000/svg"
   xmlns:svg="http://www.w3.org/2000/svg">
  <defs
     id="defs377" />
  <sodipodi:namedview
     id="namedview375"
     pagecolor="#ffffff"
     bordercolor="#666666"
     borderopacity="1.0"
     inkscape:pageshadow="2"
     inkscape:pageopacity="0.0"
     inkscape:pagecheckerboard="0"
     inkscape:document-units="pt"
     showgrid="false"
     inkscape:zoom="0.50401137"
     inkscape:cx="453.36279"
     inkscape:cy="593.24059"
     inkscape:window-width="1920"
     inkscape:window-height="1154"
     inkscape:window-x="0"
     inkscape:window-y="22"
     inkscape:window-maximized="1"
     inkscape:current-layer="svg373" />
  <path
     style="fill:none;stroke:#ffffff;stroke-width:2;stroke-linecap:round;stroke-linejoin:round;stroke-miterlimit:10;stroke-opacity:1"
     d="m 711.04297,435.53516 c 0,-159.99219 -129.69531,-289.6875 -289.6875,-289.6875 -159.99219,0 -289.6875,129.69531 -289.6875,289.6875 0,159.99219 129.69531,289.6875 289.6875,289.6875 159.99219,0 289.6875,-129.69531 289.6875,-289.6875 z m 0,0"
     id="path2" />
  <path
     style="fill:none;stroke:#ffffff;stroke-width:2;stroke-linecap:round;stroke-linejoin:round;stroke-miterlimit:10;stroke-opacity:1"
     d="m 566.19922,435.53516 c 0,-79.99609 -64.84766,-144.84375 -144.84375,-144.84375 -79.99609,0 -144.84375,64.84766 -144.84375,144.84375 0,79.99609 64.84766,144.84375 144.84375,144.84375 79.99609,0 144.84375,-64.84766 144.84375,-144.84375 z m 0,0"
     id="path4" />
  <path
     style="fill:none;stroke:#ffffff;stroke-width:2;stroke-linecap:round;stroke-linejoin:round;stroke-miterlimit:10;stroke-opacity:1"
     d="M 559.10938,390.77344 696.86719,346.01563"
     id="path6" />
  <path
     style="fill:none;stroke:#ffffff;stroke-width:2;stroke-linecap:round;stroke-linejoin:round;stroke-miterlimit:10;stroke-opacity:1"
     d="M 421.35547,290.69141 V 145.84766"
     id="path8" />
  <path
     style="fill:none;stroke:#ffffff;stroke-width:2;stroke-linecap:round;stroke-linejoin:round;stroke-miterlimit:10;stroke-opacity:1"
     d="M 283.60156,390.77735 145.84375,346.01563"
     id="path10" />
  <path
     style="fill:none;stroke:#ffffff;stroke-width:2;stroke-linecap:round;stroke-linejoin:round;stroke-miterlimit:10;stroke-opacity:1"
     d="M 336.21875,552.71875 251.08203,669.89844"
     id="path12" />
  <path
     style="fill:none;stroke:#ffffff;stroke-width:2;stroke-linecap:round;stroke-linejoin:round;stroke-miterlimit:10;stroke-opacity:1"
     d="m 506.49219,552.71485 85.13672,117.18359"
     id="path14" />
  <path
     style="fill:none;stroke:#ffffff;stroke-width:2;stroke-linecap:round;stroke-linejoin:round;stroke-miterlimit:10;stroke-opacity:1"
     d="m 421.35547,290.69141 -137.75391,100.08594 52.61719,161.9375 170.27344,0.004 52.61719,-161.94531 -137.75391,-100.08213"
     id="path16" />
  <path
     style="fill:none;stroke:#ffffff;stroke-width:2;stroke-linecap:round;stroke-linejoin:round;stroke-miterlimit:10;stroke-opacity:1"
     d="m 566.19922,669.89844 c 0,-79.99609 -64.84766,-144.84375 -144.84375,-144.84375 -79.99609,0 -144.84375,64.84766 -144.84375,144.84375 0,79.9961 64.84766,144.84375 144.84375,144.84375 79.99609,0 144.84375,-64.84765 144.84375,-144.84375 z m 0,0"
     id="path18" />
  <path
     style="fill:none;stroke:#ffffff;stroke-width:2;stroke-linecap:round;stroke-linejoin:round;stroke-miterlimit:10;stroke-opacity:1"
     d="m 789.09375,507.95704 c 0,-79.9961 -64.84766,-144.84375 -144.84375,-144.84375 -79.99609,0 -144.84766,64.84765 -144.84766,144.84375 0,79.99609 64.85157,144.84375 144.84766,144.84375 79.99609,0 144.84375,-64.84766 144.84375,-144.84375 z m 0,0"
     id="path20" />
  <path
     style="fill:none;stroke:#ffffff;stroke-width:2;stroke-linecap:round;stroke-linejoin:round;stroke-miterlimit:10;stroke-opacity:1"
     d="m 703.95703,245.92969 c 0,-79.99609 -64.85156,-144.84375 -144.84765,-144.84375 -79.9961,0 -144.84375,64.84766 -144.84375,144.84375 0,79.9961 64.84765,144.84766 144.84375,144.84766 79.99609,0 144.84765,-64.85156 144.84765,-144.84766 z m 0,0"
     id="path22" />
  <path
     style="fill:none;stroke:#ffffff;stroke-width:2;stroke-linecap:round;stroke-linejoin:round;stroke-miterlimit:10;stroke-opacity:1"
     d="m 428.44531,245.92969 c 0,-79.99609 -64.85156,-144.84375 -144.84765,-144.84375 -79.99219,0 -144.84375,64.84766 -144.84375,144.84375 0,79.9961 64.85156,144.84766 144.84375,144.84766 79.99609,0 144.84765,-64.85156 144.84765,-144.84766 z m 0,0"
     id="path24" />
  <path
     style="fill:none;stroke:#ffffff;stroke-width:2;stroke-linecap:round;stroke-linejoin:round;stroke-miterlimit:10;stroke-opacity:1"
     d="m 343.30859,507.95704 c 0,-79.9961 -64.85156,-144.84375 -144.84765,-144.84375 -79.99609,0 -144.843751,64.84765 -144.843751,144.84375 0,79.99609 64.847661,144.84375 144.843751,144.84375 79.99609,0 144.84765,-64.84766 144.84765,-144.84375 z m 0,0"
     id="path26" />
  <path
     style="fill:none;stroke:#ffffff;stroke-width:2;stroke-linecap:round;stroke-linejoin:round;stroke-miterlimit:10;stroke-opacity:1"
     d="m 395.92578,669.89844 c 0,-79.99609 -64.85156,-144.84375 -144.84375,-144.84375 -79.99609,0 -144.84765,64.84766 -144.84765,144.84375 0,79.9961 64.85156,144.84375 144.84765,144.84375 79.99219,0 144.84375,-64.84765 144.84375,-144.84375 z m 0,0"
     id="path28" />
  <path
     style="fill:none;stroke:#ffffff;stroke-width:2;stroke-linecap:round;stroke-linejoin:round;stroke-miterlimit:10;stroke-opacity:1"
     d="m 290.69141,346.01563 c 0,-79.99609 -64.85156,-144.84375 -144.84766,-144.84375 C 65.847658,201.17188 1,266.01954 1,346.01563 c 0,79.99609 64.847658,144.84766 144.84375,144.84766 79.9961,0 144.84766,-64.85157 144.84766,-144.84766 z m 0,0"
     id="path30" />
  <path
     style="fill:none;stroke:#ffffff;stroke-width:2;stroke-linecap:round;stroke-linejoin:round;stroke-miterlimit:10;stroke-opacity:1"
     d="M 566.19922,145.84766 C 566.19922,65.85157 501.35156,1 421.35547,1 341.35938,1 276.51172,65.85157 276.51172,145.84766 c 0,79.99219 64.84766,144.84375 144.84375,144.84375 79.99609,0 144.84375,-64.85156 144.84375,-144.84375 z m 0,0"
     id="path32" />
  <path
     style="fill:none;stroke:#ffffff;stroke-width:2;stroke-linecap:round;stroke-linejoin:round;stroke-miterlimit:10;stroke-opacity:1"
     d="m 841.71094,346.01563 c 0,-79.99609 -64.84766,-144.84375 -144.84375,-144.84375 -79.9961,0 -144.84766,64.84766 -144.84766,144.84375 0,79.99609 64.85156,144.84375 144.84766,144.84375 79.99609,0 144.84375,-64.84766 144.84375,-144.84375 z m 0,0"
     id="path34" />
  <path
     style="fill:none;stroke:#ffffff;stroke-width:2;stroke-linecap:round;stroke-linejoin:round;stroke-miterlimit:10;stroke-opacity:1"
     d="m 736.47656,669.89844 c 0,-79.99609 -64.85156,-144.84375 -144.84765,-144.84375 -79.99219,0 -144.84375,64.84766 -144.84375,144.84375 0,79.9961 64.85156,144.84375 144.84375,144.84375 79.99609,0 144.84765,-64.84765 144.84765,-144.84375 z m 0,0"
     id="path36" />
  <path
     style="fill:none;stroke:#ffffff;stroke-width:2;stroke-linecap:round;stroke-linejoin:round;stroke-miterlimit:10;stroke-opacity:1"
     d="M 421.35547,669.89844 160.11719,310.33594"
     id="path38" />
  <path
     style="fill:none;stroke:#ffffff;stroke-width:2;stroke-linecap:round;stroke-linejoin:round;stroke-miterlimit:10;stroke-opacity:1"
     d="M 421.35547,669.89844 682.59375,310.33594"
     id="path40" />
  <path
     style="fill:none;stroke:#ffffff;stroke-width:2;stroke-linecap:round;stroke-linejoin:round;stroke-miterlimit:10;stroke-opacity:1"
     d="M 198.46094,507.95704 459.69922,148.39454"
     id="path42" />
  <path
     style="fill:none;stroke:#ffffff;stroke-width:2;stroke-linecap:round;stroke-linejoin:round;stroke-miterlimit:10;stroke-opacity:1"
     d="m 198.46094,507.95704 422.6914,137.33984"
     id="path44" />
  <path
     style="fill:none;stroke:#ffffff;stroke-width:2;stroke-linecap:round;stroke-linejoin:round;stroke-miterlimit:10;stroke-opacity:1"
     d="m 283.60156,690.375 -0.004,-444.44531 422.6914,137.33985"
     id="path46" />
  <path
     style="fill:none;stroke:#ffffff;stroke-width:2;stroke-linecap:round;stroke-linejoin:round;stroke-miterlimit:10;stroke-opacity:1"
     d="M 136.41797,383.27344 559.10938,245.92969"
     id="path48" />
  <path
     style="fill:none;stroke:#ffffff;stroke-width:2;stroke-linecap:round;stroke-linejoin:round;stroke-miterlimit:10;stroke-opacity:1"
     d="M 559.11328,690.375 V 245.92969"
     id="path50" />
  <path
     style="fill:none;stroke:#ffffff;stroke-width:2;stroke-linecap:round;stroke-linejoin:round;stroke-miterlimit:10;stroke-opacity:1"
     d="M 221.5586,645.30079 644.25,507.95704 383.01172,148.39454"
     id="path52" />
  <path
     style="fill:none;stroke:#ffffff;stroke-width:2;stroke-linecap:round;stroke-linejoin:round;stroke-miterlimit:10;stroke-opacity:1"
     d="M 704.95313,494.6211 157.1875,316.64454"
     id="path54" />
  <path
     style="fill:none;stroke:#ffffff;stroke-width:2;stroke-linecap:round;stroke-linejoin:round;stroke-miterlimit:10;stroke-opacity:1"
     d="M 685.52344,554.42579 137.75781,376.44922"
     id="path56" />
  <path
     style="fill:none;stroke:#ffffff;stroke-width:2;stroke-linecap:round;stroke-linejoin:round;stroke-miterlimit:10;stroke-opacity:1"
     d="M 452.79688,723.51172 V 147.5586"
     id="path58" />
  <path
     style="fill:none;stroke:#ffffff;stroke-width:2;stroke-linecap:round;stroke-linejoin:round;stroke-miterlimit:10;stroke-opacity:1"
     d="M 389.91406,723.51172 V 147.5586"
     id="path60" />
  <path
     style="fill:none;stroke:#ffffff;stroke-width:2;stroke-linecap:round;stroke-linejoin:round;stroke-miterlimit:10;stroke-opacity:1"
     d="M 277.52344,184.07422 616.05859,650.03125"
     id="path62" />
  <path
     style="fill:none;stroke:#ffffff;stroke-width:2;stroke-linecap:round;stroke-linejoin:round;stroke-miterlimit:10;stroke-opacity:1"
     d="M 226.64844,221.03516 565.1875,686.9961"
     id="path64" />
  <path
     style="fill:none;stroke:#ffffff;stroke-width:2;stroke-linecap:round;stroke-linejoin:round;stroke-miterlimit:10;stroke-opacity:1"
     d="M 157.1875,554.42969 704.95313,376.44922"
     id="path66" />
  <path
     style="fill:none;stroke:#ffffff;stroke-width:2;stroke-linecap:round;stroke-linejoin:round;stroke-miterlimit:10;stroke-opacity:1"
     d="M 137.75781,494.6211 685.52344,316.64454"
     id="path68" />
  <path
     style="fill:none;stroke:#ffffff;stroke-width:2;stroke-linecap:round;stroke-linejoin:round;stroke-miterlimit:10;stroke-opacity:1"
     d="M 565.1875,184.07422 226.65235,650.03125"
     id="path70" />
  <path
     style="fill:none;stroke:#ffffff;stroke-width:2;stroke-linecap:round;stroke-linejoin:round;stroke-miterlimit:10;stroke-opacity:1"
     d="M 616.05859,221.03516 277.52344,686.9961"
     id="path72" />
  <path
     style="fill:none;stroke:#ffffff;stroke-width:2;stroke-linecap:round;stroke-linejoin:round;stroke-miterlimit:10;stroke-opacity:1"
     d="M 283.59766,101.08594 113.32422,625.14063 h 616.0625 L 559.11328,101.08594 60.707032,463.19922 506.49219,787.08204 696.86719,201.17188 H 145.84375 L 336.21875,787.08204 782.00391,463.19922 283.59766,101.08594"
     id="path74" />
  <path
     style="fill:none;stroke:#ffffff;stroke-width:2;stroke-linecap:round;stroke-linejoin:round;stroke-miterlimit:10;stroke-opacity:1"
     d="m 305.96875,647.52344 c 0,-12.35547 -10.01953,-22.375 -22.375,-22.375 -12.35937,0 -22.375,10.01953 -22.375,22.375 0,12.35938 10.01563,22.375 22.375,22.375 12.35547,0 22.375,-10.01562 22.375,-22.375 z m 0,0"
     id="path76" />
  <path
     style="fill:none;stroke:#ffffff;stroke-width:2;stroke-linecap:round;stroke-linejoin:round;stroke-miterlimit:10;stroke-opacity:1"
     d="m 284.71484,632.0586 c 0,-12.36328 -10.02343,-22.38672 -22.39062,-22.38672 -12.36328,0 -22.38672,10.02344 -22.38672,22.38672 0,12.36719 10.02344,22.39062 22.38672,22.39062 12.36719,0 22.39062,-10.02343 22.39062,-22.39062 z m 0,0"
     id="path78" />
  <path
     style="fill:none;stroke:#ffffff;stroke-width:2;stroke-linecap:round;stroke-linejoin:round;stroke-miterlimit:10;stroke-opacity:1"
     d="m 587.3125,610.78125 c -11.75391,-3.8164 -24.375,2.61329 -28.19531,14.36719 -3.81641,11.75391 2.61328,24.375 14.36719,28.19531 11.75,3.81641 24.375,-2.61328 28.19531,-14.36718 3.8164,-11.75391 -2.61328,-24.375 -14.36719,-28.19532 z m 0,0"
     id="path80" />
  <path
     style="fill:none;stroke:#ffffff;stroke-width:2;stroke-linecap:round;stroke-linejoin:round;stroke-miterlimit:10;stroke-opacity:1"
     d="m 566.03516,626.21875 c -11.75782,-3.82031 -24.38672,2.61329 -28.20703,14.375 -3.82032,11.75782 2.61328,24.38672 14.37109,28.21094 11.76172,3.82031 24.39062,-2.61719 28.21094,-14.375 3.82031,-11.76172 -2.61328,-24.39062 -14.375,-28.21094 z m 0,0"
     id="path82" />
  <path
     style="fill:none;stroke:#ffffff;stroke-width:2;stroke-linecap:round;stroke-linejoin:round;stroke-miterlimit:10;stroke-opacity:1"
     d="m 184.08594,391.30469 c 11.7539,-3.82031 18.18359,-16.4414 14.36719,-28.19531 -3.82032,-11.75 -16.44532,-18.18359 -28.19532,-14.36328 -11.7539,3.8164 -18.18359,16.4414 -14.36718,28.1914 3.82031,11.75391 16.4414,18.1836 28.19531,14.36719 z m 0,0"
     id="path84" />
  <path
     style="fill:none;stroke:#ffffff;stroke-width:2;stroke-linecap:round;stroke-linejoin:round;stroke-miterlimit:10;stroke-opacity:1"
     d="m 192.22656,366.3086 c 11.75782,-3.82031 18.19141,-16.44922 14.3711,-28.20703 -3.82032,-11.76172 -16.44922,-18.19532 -28.21094,-14.375 -11.75781,3.82031 -18.19141,16.44922 -14.37109,28.21093 3.82031,11.75782 16.44921,18.19532 28.21093,14.3711 z m 0,0"
     id="path86" />
  <path
     style="fill:none;stroke:#ffffff;stroke-width:2;stroke-linecap:round;stroke-linejoin:round;stroke-miterlimit:10;stroke-opacity:1"
     d="m 305.96875,647.52344 c 0,-12.35547 -10.01953,-22.375 -22.375,-22.375 -12.35937,0 -22.375,10.01953 -22.375,22.375 0,12.35938 10.01563,22.375 22.375,22.375 12.35547,0 22.375,-10.01562 22.375,-22.375 z m 0,0"
     id="path88" />
  <path
     style="fill:none;stroke:#ffffff;stroke-width:2;stroke-linecap:round;stroke-linejoin:round;stroke-miterlimit:10;stroke-opacity:1"
     d="m 284.71484,632.0586 c 0,-12.36328 -10.02343,-22.38672 -22.39062,-22.38672 -12.36328,0 -22.38672,10.02344 -22.38672,22.38672 0,12.36719 10.02344,22.39062 22.38672,22.39062 12.36719,0 22.39062,-10.02343 22.39062,-22.39062 z m 0,0"
     id="path90" />
  <path
     style="fill:none;stroke:#ffffff;stroke-width:2;stroke-linecap:round;stroke-linejoin:round;stroke-miterlimit:10;stroke-opacity:1"
     d="m 639.30859,331.85547 c -7.26171,9.9961 -5.04687,23.98828 4.95313,31.25391 9.99609,7.26172 23.98828,5.04687 31.25,-4.94922 7.26562,-10 5.04687,-23.99219 -4.94922,-31.25391 -9.99609,-7.26562 -23.98828,-5.04687 -31.25391,4.94922 z m 0,0"
     id="path92" />
  <path
     style="fill:none;stroke:#ffffff;stroke-width:2;stroke-linecap:round;stroke-linejoin:round;stroke-miterlimit:10;stroke-opacity:1"
     d="m 647.41797,356.85938 c -7.26953,10.00391 -5.05078,24.00391 4.94922,31.26953 10.0039,7.26953 24.0039,5.05078 31.27344,-4.95312 7.26562,-10 5.05078,-24 -4.95313,-31.26954 -10.00391,-7.26562 -24.00391,-5.05078 -31.26953,4.95313 z m 0,0"
     id="path94" />
  <path
     style="fill:none;stroke:#ffffff;stroke-width:2;stroke-linecap:round;stroke-linejoin:round;stroke-miterlimit:10;stroke-opacity:1"
     d="m 390.10156,196.21094 c 7.26172,9.9961 21.25391,12.21094 31.25391,4.94922 9.99609,-7.26562 12.21094,-21.25781 4.94922,-31.25391 -7.26172,-9.99609 -21.25781,-12.21484 -31.25391,-4.94921 -9.99609,7.26171 -12.21094,21.2539 -4.94922,31.2539 z m 0,0"
     id="path96" />
  <path
     style="fill:none;stroke:#ffffff;stroke-width:2;stroke-linecap:round;stroke-linejoin:round;stroke-miterlimit:10;stroke-opacity:1"
     d="m 416.38672,196.22657 c 7.26562,10.0039 21.26953,12.21875 31.26953,4.95312 10.00391,-7.26953 12.22266,-21.26953 4.95313,-31.26953 -7.26563,-10.00391 -21.26563,-12.22266 -31.26954,-4.95312 -10.0039,7.26562 -12.22265,21.26562 -4.95312,31.26953 z m 0,0"
     id="path98" />
  <path
     style="fill:none;stroke:#ffffff;stroke-width:2;stroke-linecap:round;stroke-linejoin:round;stroke-miterlimit:10;stroke-opacity:1"
     d="m 283.59375,647.52344 61.61328,22.375 44.70703,-10.21484"
     id="path100" />
  <path
     style="fill:none;stroke:#ffffff;stroke-width:2;stroke-linecap:round;stroke-linejoin:round;stroke-miterlimit:10;stroke-opacity:1"
     d="M 262.32422,632.0586 221.9961,580.38282 217.89453,534.70313"
     id="path102" />
  <path
     style="fill:none;stroke:#ffffff;stroke-width:2;stroke-linecap:round;stroke-linejoin:round;stroke-miterlimit:10;stroke-opacity:1"
     d="m 185.30469,345.01954 36.6875,-54.32813"
     id="path104" />
  <path
     style="fill:none;stroke:#ffffff;stroke-width:2;stroke-linecap:round;stroke-linejoin:round;stroke-miterlimit:10;stroke-opacity:1"
     d="M 221.9961,580.38282 497.50391,201.17188"
     id="path106" />
  <path
     style="fill:none;stroke:#ffffff;stroke-width:2;stroke-linecap:round;stroke-linejoin:round;stroke-miterlimit:10;stroke-opacity:1"
     d="M 345.20703,669.89844 620.71875,290.69141"
     id="path108" />
  <path
     style="fill:none;stroke:#ffffff;stroke-width:2;stroke-linecap:round;stroke-linejoin:round;stroke-miterlimit:10;stroke-opacity:1"
     d="M 497.50781,669.89844 221.99219,290.69141"
     id="path110" />
  <path
     style="fill:none;stroke:#ffffff;stroke-width:2;stroke-linecap:round;stroke-linejoin:round;stroke-miterlimit:10;stroke-opacity:1"
     d="M 620.71875,580.37891 345.20703,201.17188"
     id="path112" />
  <path
     style="fill:none;stroke:#ffffff;stroke-width:2;stroke-linecap:round;stroke-linejoin:round;stroke-miterlimit:10;stroke-opacity:1"
     d="M 221.99219,290.69141 667.78125,435.53516"
     id="path114" />
  <path
     style="fill:none;stroke:#ffffff;stroke-width:2;stroke-linecap:round;stroke-linejoin:round;stroke-miterlimit:10;stroke-opacity:1"
     d="M 174.92969,435.53516 620.71875,580.37891"
     id="path116" />
  <path
     style="fill:none;stroke:#ffffff;stroke-width:2;stroke-linecap:round;stroke-linejoin:round;stroke-miterlimit:10;stroke-opacity:1"
     d="M 667.78125,435.53125 221.9961,580.37891"
     id="path118" />
  <path
     style="fill:none;stroke:#ffffff;stroke-width:2;stroke-linecap:round;stroke-linejoin:round;stroke-miterlimit:10;stroke-opacity:1"
     d="M 620.71875,290.69141 174.92969,435.53516"
     id="path120" />
  <path
     style="fill:none;stroke:#ffffff;stroke-width:2;stroke-linecap:round;stroke-linejoin:round;stroke-miterlimit:10;stroke-opacity:1"
     d="m 497.5,201.17188 0.004,468.72656"
     id="path122" />
  <path
     style="fill:none;stroke:#ffffff;stroke-width:2;stroke-linecap:round;stroke-linejoin:round;stroke-miterlimit:10;stroke-opacity:1"
     d="m 345.20703,201.17188 -0.004,468.72656"
     id="path124" />
  <path
     style="fill:none;stroke:#000000;stroke-width:0.4;stroke-linecap:round;stroke-linejoin:round;stroke-miterlimit:10;stroke-opacity:1"
     d="m 711.04297,435.53516 c 0,-159.99219 -129.69531,-289.6875 -289.6875,-289.6875 -159.99219,0 -289.6875,129.69531 -289.6875,289.6875 0,159.99219 129.69531,289.6875 289.6875,289.6875 159.99219,0 289.6875,-129.69531 289.6875,-289.6875 z m 0,0"
     id="path126" />
  <path
     style="fill:none;stroke:#000000;stroke-width:0.4;stroke-linecap:round;stroke-linejoin:round;stroke-miterlimit:10;stroke-opacity:1"
     d="M 421.35547,145.84766 145.84375,346.01563 251.08203,669.89844 H 591.62891 L 696.86719,346.01563 421.35547,145.84766"
     id="path128" />
  <path
     style="fill:none;stroke:#000000;stroke-width:0.4;stroke-linecap:round;stroke-linejoin:round;stroke-miterlimit:10;stroke-opacity:1"
     d="m 566.19922,435.53516 c 0,-79.99609 -64.84766,-144.84375 -144.84375,-144.84375 -79.99609,0 -144.84375,64.84766 -144.84375,144.84375 0,79.99609 64.84766,144.84375 144.84375,144.84375 79.99609,0 144.84375,-64.84766 144.84375,-144.84375 z m 0,0"
     id="path130" />
  <path
     style="fill:none;stroke:#000000;stroke-width:0.4;stroke-linecap:round;stroke-linejoin:round;stroke-miterlimit:10;stroke-opacity:1"
     d="M 559.10938,390.77344 696.86719,346.01563"
     id="path132" />
  <path
     style="fill:none;stroke:#000000;stroke-width:0.4;stroke-linecap:round;stroke-linejoin:round;stroke-miterlimit:10;stroke-opacity:1"
     d="M 421.35547,290.69141 V 145.84766"
     id="path134" />
  <path
     style="fill:none;stroke:#000000;stroke-width:0.4;stroke-linecap:round;stroke-linejoin:round;stroke-miterlimit:10;stroke-opacity:1"
     d="M 283.60156,390.77735 145.84375,346.01563"
     id="path136" />
  <path
     style="fill:none;stroke:#000000;stroke-width:0.4;stroke-linecap:round;stroke-linejoin:round;stroke-miterlimit:10;stroke-opacity:1"
     d="M 336.21875,552.71875 251.08203,669.89844"
     id="path138" />
  <path
     style="fill:none;stroke:#000000;stroke-width:0.4;stroke-linecap:round;stroke-linejoin:round;stroke-miterlimit:10;stroke-opacity:1"
     d="m 506.49219,552.71485 85.13672,117.18359"
     id="path140" />
  <path
     style="fill:none;stroke:#000000;stroke-width:0.4;stroke-linecap:round;stroke-linejoin:round;stroke-miterlimit:10;stroke-opacity:1"
     d="m 421.35547,290.69141 -137.75391,100.08594 52.61719,161.9375 170.27344,0.004 52.61719,-161.94531 -137.75391,-100.08213"
     id="path142" />
  <path
     style="fill:none;stroke:#000000;stroke-width:0.4;stroke-linecap:round;stroke-linejoin:round;stroke-miterlimit:10;stroke-opacity:1"
     d="m 566.19922,669.89844 c 0,-79.99609 -64.84766,-144.84375 -144.84375,-144.84375 -79.99609,0 -144.84375,64.84766 -144.84375,144.84375 0,79.9961 64.84766,144.84766 144.84375,144.84766 79.99609,0 144.84375,-64.85156 144.84375,-144.84766 z m 0,0"
     id="path144" />
  <path
     style="fill:none;stroke:#000000;stroke-width:0.4;stroke-linecap:round;stroke-linejoin:round;stroke-miterlimit:10;stroke-opacity:1"
     d="m 789.09375,507.95704 c 0,-79.9961 -64.84766,-144.84375 -144.84375,-144.84375 -79.99609,0 -144.84766,64.84765 -144.84766,144.84375 0,79.99609 64.85157,144.84375 144.84766,144.84375 79.99609,0 144.84375,-64.84766 144.84375,-144.84375 z m 0,0"
     id="path146" />
  <path
     style="fill:none;stroke:#000000;stroke-width:0.4;stroke-linecap:round;stroke-linejoin:round;stroke-miterlimit:10;stroke-opacity:1"
     d="m 703.95703,245.92969 c 0,-79.99609 -64.85156,-144.84375 -144.84765,-144.84375 -79.9961,0 -144.84375,64.84766 -144.84375,144.84375 0,79.9961 64.84765,144.84766 144.84375,144.84766 79.99609,0 144.84765,-64.85156 144.84765,-144.84766 z m 0,0"
     id="path148" />
  <path
     style="fill:none;stroke:#000000;stroke-width:0.4;stroke-linecap:round;stroke-linejoin:round;stroke-miterlimit:10;stroke-opacity:1"
     d="m 428.44531,245.92969 c 0,-79.99609 -64.85156,-144.84375 -144.84765,-144.84375 -79.99219,0 -144.84375,64.84766 -144.84375,144.84375 0,79.9961 64.85156,144.84766 144.84375,144.84766 79.99609,0 144.84765,-64.85156 144.84765,-144.84766 z m 0,0"
     id="path150" />
  <path
     style="fill:none;stroke:#000000;stroke-width:0.4;stroke-linecap:round;stroke-linejoin:round;stroke-miterlimit:10;stroke-opacity:1"
     d="m 343.30859,507.95704 c 0,-79.9961 -64.85156,-144.84375 -144.84765,-144.84375 -79.99609,0 -144.843751,64.84765 -144.843751,144.84375 0,79.99609 64.847661,144.84375 144.843751,144.84375 79.99609,0 144.84765,-64.84766 144.84765,-144.84375 z m 0,0"
     id="path152" />
  <path
     style="fill:none;stroke:#000000;stroke-width:0.4;stroke-linecap:round;stroke-linejoin:round;stroke-miterlimit:10;stroke-opacity:1"
     d="m 395.92578,669.89844 c 0,-79.99609 -64.85156,-144.84375 -144.84375,-144.84375 -79.99609,0 -144.84765,64.84766 -144.84765,144.84375 0,79.9961 64.85156,144.84766 144.84765,144.84766 79.99219,0 144.84375,-64.85156 144.84375,-144.84766 z m 0,0"
     id="path154" />
  <path
     style="fill:none;stroke:#000000;stroke-width:0.4;stroke-linecap:round;stroke-linejoin:round;stroke-miterlimit:10;stroke-opacity:1"
     d="m 290.69141,346.01563 c 0,-79.99609 -64.85156,-144.84375 -144.84766,-144.84375 C 65.847658,201.17188 1,266.01954 1,346.01563 c 0,79.99609 64.847658,144.84766 144.84375,144.84766 79.9961,0 144.84766,-64.85157 144.84766,-144.84766 z m 0,0"
     id="path156" />
  <path
     style="fill:none;stroke:#000000;stroke-width:0.4;stroke-linecap:round;stroke-linejoin:round;stroke-miterlimit:10;stroke-opacity:1"
     d="M 566.19922,145.84766 C 566.19922,65.85157 501.35156,1 421.35547,1 341.35938,1 276.51172,65.85157 276.51172,145.84766 c 0,79.99609 64.84766,144.84375 144.84375,144.84375 79.99609,0 144.84375,-64.84766 144.84375,-144.84375 z m 0,0"
     id="path158" />
  <path
     style="fill:none;stroke:#000000;stroke-width:0.4;stroke-linecap:round;stroke-linejoin:round;stroke-miterlimit:10;stroke-opacity:1"
     d="m 841.71094,346.01563 c 0,-79.99609 -64.84766,-144.84375 -144.84375,-144.84375 -79.9961,0 -144.84766,64.84766 -144.84766,144.84375 0,79.99609 64.85156,144.84375 144.84766,144.84375 79.99609,0 144.84375,-64.84766 144.84375,-144.84375 z m 0,0"
     id="path160" />
  <path
     style="fill:none;stroke:#000000;stroke-width:0.4;stroke-linecap:round;stroke-linejoin:round;stroke-miterlimit:10;stroke-opacity:1"
     d="m 736.47656,669.89844 c 0,-79.99609 -64.85156,-144.84375 -144.84765,-144.84375 -79.99219,0 -144.84375,64.84766 -144.84375,144.84375 0,79.9961 64.85156,144.84766 144.84375,144.84766 79.99609,0 144.84765,-64.85156 144.84765,-144.84766 z m 0,0"
     id="path162" />
  <path
     style="fill:none;stroke:#000000;stroke-width:0.4;stroke-linecap:round;stroke-linejoin:round;stroke-miterlimit:10;stroke-opacity:1"
     d="M 421.35547,669.89844 160.11719,310.33594"
     id="path164" />
  <path
     style="fill:none;stroke:#000000;stroke-width:0.4;stroke-linecap:round;stroke-linejoin:round;stroke-miterlimit:10;stroke-opacity:1"
     d="M 421.35547,669.89844 682.59375,310.33594"
     id="path166" />
  <path
     style="fill:none;stroke:#000000;stroke-width:0.4;stroke-linecap:round;stroke-linejoin:round;stroke-miterlimit:10;stroke-opacity:1"
     d="M 198.46094,507.95704 459.69922,148.39454"
     id="path168" />
  <path
     style="fill:none;stroke:#000000;stroke-width:0.4;stroke-linecap:round;stroke-linejoin:round;stroke-miterlimit:10;stroke-opacity:1"
     d="m 198.46094,507.95704 422.6914,137.33984"
     id="path170" />
  <path
     style="fill:none;stroke:#000000;stroke-width:0.4;stroke-linecap:round;stroke-linejoin:round;stroke-miterlimit:10;stroke-opacity:1"
     d="m 283.60156,690.375 -0.004,-444.44531 422.6914,137.33985"
     id="path172" />
  <path
     style="fill:none;stroke:#000000;stroke-width:0.4;stroke-linecap:round;stroke-linejoin:round;stroke-miterlimit:10;stroke-opacity:1"
     d="M 136.41797,383.27344 559.10938,245.92969"
     id="path174" />
  <path
     style="fill:none;stroke:#000000;stroke-width:0.4;stroke-linecap:round;stroke-linejoin:round;stroke-miterlimit:10;stroke-opacity:1"
     d="M 559.11328,690.375 V 245.92969"
     id="path176" />
  <path
     style="fill:none;stroke:#000000;stroke-width:0.4;stroke-linecap:round;stroke-linejoin:round;stroke-miterlimit:10;stroke-opacity:1"
     d="M 221.5586,645.30079 644.25,507.95704 383.01172,148.39454"
     id="path178" />
  <path
     style="fill:none;stroke:#000000;stroke-width:0.4;stroke-linecap:round;stroke-linejoin:round;stroke-miterlimit:10;stroke-opacity:1"
     d="M 704.95313,494.6211 157.1875,316.64454"
     id="path180" />
  <path
     style="fill:none;stroke:#000000;stroke-width:0.4;stroke-linecap:round;stroke-linejoin:round;stroke-miterlimit:10;stroke-opacity:1"
     d="M 685.52344,554.42579 137.75781,376.44922"
     id="path182" />
  <path
     style="fill:none;stroke:#000000;stroke-width:0.4;stroke-linecap:round;stroke-linejoin:round;stroke-miterlimit:10;stroke-opacity:1"
     d="M 452.79688,723.51172 V 147.5586"
     id="path184" />
  <path
     style="fill:none;stroke:#000000;stroke-width:0.4;stroke-linecap:round;stroke-linejoin:round;stroke-miterlimit:10;stroke-opacity:1"
     d="M 389.91406,723.51172 V 147.5586"
     id="path186" />
  <path
     style="fill:none;stroke:#000000;stroke-width:0.4;stroke-linecap:round;stroke-linejoin:round;stroke-miterlimit:10;stroke-opacity:1"
     d="M 277.52344,184.07422 616.05859,650.03125"
     id="path188" />
  <path
     style="fill:none;stroke:#000000;stroke-width:0.4;stroke-linecap:round;stroke-linejoin:round;stroke-miterlimit:10;stroke-opacity:1"
     d="M 226.64844,221.03907 565.1875,686.9961"
     id="path190" />
  <path
     style="fill:none;stroke:#000000;stroke-width:0.4;stroke-linecap:round;stroke-linejoin:round;stroke-miterlimit:10;stroke-opacity:1"
     d="M 157.1875,554.42969 704.95313,376.44922"
     id="path192" />
  <path
     style="fill:none;stroke:#000000;stroke-width:0.4;stroke-linecap:round;stroke-linejoin:round;stroke-miterlimit:10;stroke-opacity:1"
     d="M 137.75781,494.625 685.52344,316.64454"
     id="path194" />
  <path
     style="fill:none;stroke:#000000;stroke-width:0.4;stroke-linecap:round;stroke-linejoin:round;stroke-miterlimit:10;stroke-opacity:1"
     d="M 565.1875,184.07422 226.65235,650.03125"
     id="path196" />
  <path
     style="fill:none;stroke:#000000;stroke-width:0.4;stroke-linecap:round;stroke-linejoin:round;stroke-miterlimit:10;stroke-opacity:1"
     d="M 616.05859,221.03516 277.52344,686.9961"
     id="path198" />
  <path
     style="fill:none;stroke:#000000;stroke-width:0.4;stroke-linecap:round;stroke-linejoin:round;stroke-miterlimit:10;stroke-opacity:1"
     d="M 283.59766,101.08594 113.32422,625.14063 h 616.0625 L 559.11328,101.08594 60.707032,463.19922 506.49219,787.08204 696.86719,201.17188 H 145.84375 L 336.21875,787.08204 782.00391,463.19922 283.59766,101.08594"
     id="path200" />
  <path
     style="fill:none;stroke:#000000;stroke-width:0.4;stroke-linecap:round;stroke-linejoin:round;stroke-miterlimit:10;stroke-opacity:1"
     d="m 305.96875,647.52344 c 0,-12.35547 -10.01953,-22.375 -22.375,-22.375 -12.35937,0 -22.375,10.01953 -22.375,22.375 0,12.35938 10.01563,22.375 22.375,22.375 12.35547,0 22.375,-10.01562 22.375,-22.375 z m 0,0"
     id="path202" />
  <path
     style="fill:none;stroke:#000000;stroke-width:0.4;stroke-linecap:round;stroke-linejoin:round;stroke-miterlimit:10;stroke-opacity:1"
     d="m 284.71484,632.0586 c 0,-12.36328 -10.02343,-22.38672 -22.39062,-22.38672 -12.36328,0 -22.38672,10.02344 -22.38672,22.38672 0,12.36719 10.02344,22.39062 22.38672,22.39062 12.36719,0 22.39062,-10.02343 22.39062,-22.39062 z m 0,0"
     id="path204" />
  <path
     style="fill:none;stroke:#000000;stroke-width:0.4;stroke-linecap:round;stroke-linejoin:round;stroke-miterlimit:10;stroke-opacity:1"
     d="m 587.3125,610.78125 c -11.75391,-3.8164 -24.375,2.61329 -28.19531,14.36719 -3.81641,11.75391 2.61328,24.375 14.36719,28.19531 11.75,3.81641 24.375,-2.61328 28.19531,-14.36718 3.8164,-11.75391 -2.61328,-24.375 -14.36719,-28.19532 z m 0,0"
     id="path206" />
  <path
     style="fill:none;stroke:#000000;stroke-width:0.4;stroke-linecap:round;stroke-linejoin:round;stroke-miterlimit:10;stroke-opacity:1"
     d="m 566.03516,626.21875 c -11.75782,-3.82031 -24.38672,2.61329 -28.20703,14.375 -3.82032,11.75782 2.61328,24.38672 14.37109,28.21094 11.76172,3.82031 24.39062,-2.61719 28.21094,-14.375 3.82031,-11.75781 -2.61328,-24.39062 -14.375,-28.21094 z m 0,0"
     id="path208" />
  <path
     style="fill:none;stroke:#000000;stroke-width:0.4;stroke-linecap:round;stroke-linejoin:round;stroke-miterlimit:10;stroke-opacity:1"
     d="m 184.08594,391.30469 c 11.7539,-3.82031 18.18359,-16.4414 14.36719,-28.19531 -3.82032,-11.75 -16.44532,-18.18359 -28.19532,-14.36328 -11.7539,3.8164 -18.18359,16.4414 -14.36718,28.1914 3.82031,11.75391 16.4414,18.1836 28.19531,14.36719 z m 0,0"
     id="path210" />
  <path
     style="fill:none;stroke:#000000;stroke-width:0.4;stroke-linecap:round;stroke-linejoin:round;stroke-miterlimit:10;stroke-opacity:1"
     d="m 192.22656,366.3086 c 11.75782,-3.82031 18.19141,-16.44922 14.3711,-28.20703 -3.82032,-11.76172 -16.44922,-18.19532 -28.21094,-14.375 -11.75781,3.82031 -18.19141,16.44922 -14.37109,28.21093 3.82031,11.75782 16.44921,18.19532 28.21093,14.3711 z m 0,0"
     id="path212" />
  <path
     style="fill:none;stroke:#000000;stroke-width:0.4;stroke-linecap:round;stroke-linejoin:round;stroke-miterlimit:10;stroke-opacity:1"
     d="m 305.96875,647.52344 c 0,-12.35547 -10.01953,-22.375 -22.375,-22.375 -12.35937,0 -22.375,10.01953 -22.375,22.375 0,12.35938 10.01563,22.375 22.375,22.375 12.35547,0 22.375,-10.01562 22.375,-22.375 z m 0,0"
     id="path214" />
  <path
     style="fill:none;stroke:#000000;stroke-width:0.4;stroke-linecap:round;stroke-linejoin:round;stroke-miterlimit:10;stroke-opacity:1"
     d="m 284.71484,632.0586 c 0,-12.36328 -10.02343,-22.38672 -22.39062,-22.38672 -12.36328,0 -22.38672,10.02344 -22.38672,22.38672 0,12.36719 10.02344,22.39062 22.38672,22.39062 12.36719,0 22.39062,-10.02343 22.39062,-22.39062 z m 0,0"
     id="path216" />
  <path
     style="fill:none;stroke:#000000;stroke-width:0.4;stroke-linecap:round;stroke-linejoin:round;stroke-miterlimit:10;stroke-opacity:1"
     d="m 639.30859,331.85547 c -7.26171,9.9961 -5.04687,23.98828 4.95313,31.25391 9.99609,7.26172 23.98828,5.04687 31.25,-4.94922 7.26562,-10 5.04687,-23.99219 -4.94922,-31.25391 -9.99609,-7.26562 -23.98828,-5.04687 -31.25391,4.94922 z m 0,0"
     id="path218" />
  <path
     style="fill:none;stroke:#000000;stroke-width:0.4;stroke-linecap:round;stroke-linejoin:round;stroke-miterlimit:10;stroke-opacity:1"
     d="m 647.41797,356.85938 c -7.26953,10.00391 -5.05078,24.00391 4.94922,31.26953 10.0039,7.26953 24.0039,5.05078 31.27344,-4.94922 7.26562,-10.0039 5.05078,-24.0039 -4.95313,-31.27344 -10.00391,-7.26562 -24.00391,-5.05078 -31.26953,4.95313 z m 0,0"
     id="path220" />
  <path
     style="fill:none;stroke:#000000;stroke-width:0.4;stroke-linecap:round;stroke-linejoin:round;stroke-miterlimit:10;stroke-opacity:1"
     d="m 390.10156,196.21094 c 7.26172,9.9961 21.25391,12.21094 31.25391,4.94922 9.99609,-7.26562 12.21094,-21.25781 4.94922,-31.25391 -7.26172,-9.99609 -21.25781,-12.21484 -31.25391,-4.94921 -9.99609,7.26171 -12.21094,21.2539 -4.94922,31.2539 z m 0,0"
     id="path222" />
  <path
     style="fill:none;stroke:#000000;stroke-width:0.4;stroke-linecap:round;stroke-linejoin:round;stroke-miterlimit:10;stroke-opacity:1"
     d="m 416.38672,196.22657 c 7.26562,10.0039 21.26953,12.22265 31.26953,4.95312 10.00391,-7.26562 12.22266,-21.26953 4.95313,-31.26953 -7.26563,-10.00391 -21.26563,-12.22266 -31.26954,-4.95312 -10.0039,7.26562 -12.22265,21.26562 -4.95312,31.26953 z m 0,0"
     id="path224" />
  <path
     style="fill:none;stroke:#000000;stroke-width:0.4;stroke-linecap:round;stroke-linejoin:round;stroke-miterlimit:10;stroke-opacity:1"
     d="m 283.59375,647.52344 61.61328,22.375 44.70703,-10.21484"
     id="path226" />
  <path
     style="fill:none;stroke:#000000;stroke-width:0.4;stroke-linecap:round;stroke-linejoin:round;stroke-miterlimit:10;stroke-opacity:1"
     d="M 262.32422,632.0586 221.9961,580.38282 217.89453,534.70313"
     id="path228" />
  <path
     style="fill:none;stroke:#000000;stroke-width:0.4;stroke-linecap:round;stroke-linejoin:round;stroke-miterlimit:10;stroke-opacity:1"
     d="m 185.30469,345.01954 36.6875,-54.32813"
     id="path230" />
  <path
     style="fill:none;stroke:#000000;stroke-width:0.4;stroke-linecap:round;stroke-linejoin:round;stroke-miterlimit:10;stroke-opacity:1"
     d="M 221.9961,580.38282 497.50391,201.17188"
     id="path232" />
  <path
     style="fill:none;stroke:#000000;stroke-width:0.4;stroke-linecap:round;stroke-linejoin:round;stroke-miterlimit:10;stroke-opacity:1"
     d="M 345.20703,669.89844 620.71875,290.69141"
     id="path234" />
  <path
     style="fill:none;stroke:#000000;stroke-width:0.4;stroke-linecap:round;stroke-linejoin:round;stroke-miterlimit:10;stroke-opacity:1"
     d="M 497.50781,669.89844 221.99219,290.69141"
     id="path236" />
  <path
     style="fill:none;stroke:#000000;stroke-width:0.4;stroke-linecap:round;stroke-linejoin:round;stroke-miterlimit:10;stroke-opacity:1"
     d="M 620.71875,580.37891 345.20703,201.17188"
     id="path238" />
  <path
     style="fill:none;stroke:#000000;stroke-width:0.4;stroke-linecap:round;stroke-linejoin:round;stroke-miterlimit:10;stroke-opacity:1"
     d="M 221.99219,290.69141 667.78125,435.53516"
     id="path240" />
  <path
     style="fill:none;stroke:#000000;stroke-width:0.4;stroke-linecap:round;stroke-linejoin:round;stroke-miterlimit:10;stroke-opacity:1"
     d="M 174.92969,435.53516 620.71875,580.38282"
     id="path242" />
  <path
     style="fill:none;stroke:#000000;stroke-width:0.4;stroke-linecap:round;stroke-linejoin:round;stroke-miterlimit:10;stroke-opacity:1"
     d="M 667.78125,435.53125 221.9961,580.37891"
     id="path244" />
  <path
     style="fill:none;stroke:#000000;stroke-width:0.4;stroke-linecap:round;stroke-linejoin:round;stroke-miterlimit:10;stroke-opacity:1"
     d="M 620.71875,290.69141 174.92969,435.53516"
     id="path246" />
  <path
     style="fill:none;stroke:#000000;stroke-width:0.4;stroke-linecap:round;stroke-linejoin:round;stroke-miterlimit:10;stroke-opacity:1"
     d="m 497.5,201.17188 0.004,468.72656"
     id="path248" />
  <path
     style="fill:none;stroke:#000000;stroke-width:0.4;stroke-linecap:round;stroke-linejoin:round;stroke-miterlimit:10;stroke-opacity:1"
     d="m 345.20703,201.17188 -0.004,468.72656"
     id="path250" />
  <path
     style="fill:#231e30;fill-opacity:1;fill-rule:evenodd;stroke:none"
     d="m 250.61327,617.05076 -11.543,15.8867 12.0118,36.961 h 38.8632 l 11.5352,-15.8789 -17.8867,-6.4961 -0.024,-22.375 -21.25,6.9062 z m 0,0"
     id="path252" />
  <path
     style="fill:#231e30;fill-opacity:1;fill-rule:evenodd;stroke:none"
     d="m 541.22657,654.01176 11.5391,15.8867 h 38.8632 l 12.0118,-36.961 -11.5391,-15.8789 -11.7031,15.0039 -21.2891,-6.8906 v 22.3438 z m 0,0"
     id="path254" />
  <path
     style="fill:#231e30;fill-opacity:1;fill-rule:evenodd;stroke:none"
     d="m 195.96097,329.24216 -18.6758,-6.0703 -31.4414,22.8438 12.0117,36.9609 18.6641,6.0664 0.6523,-19.0195 21.2734,-6.9336 -13.1328,-18.0781 z m 0,0"
     id="path256" />
  <path
     style="fill:#231e30;fill-opacity:1;fill-rule:evenodd;stroke:none"
     d="m 666.18357,389.04686 18.6719,-6.0703 12.0117,-36.9609 -31.4414,-22.8438 -18.668,6.0664 10.6524,15.7696 -13.1328,18.1132 21.25,6.9063 z m 0,0"
     id="path258" />
  <path
     style="fill:#231e30;fill-opacity:1;fill-rule:evenodd;stroke:none"
     d="m 452.79687,188.32426 v -19.6368 l -31.4414,-22.8398 -31.4414,22.8398 v 19.629 l 18.2891,-5.2579 13.1718,18.086 13.1328,-18.0742 z m 0,0"
     id="path260" />
  <path
     style="fill:#a31c2b;fill-opacity:1;fill-rule:evenodd;stroke:none"
     d="m 157.85547,382.97656 17.0742,52.5586 1.5899,-46.4922 z m 0,0"
     id="path262" />
  <path
     style="fill:#a31c2b;fill-opacity:1;fill-rule:evenodd;stroke:none"
     d="m 221.99217,290.69146 -44.707,32.4804 18.2539,6.6914 z m 0,0"
     id="path264" />
  <path
     style="fill:#a31c2b;fill-opacity:1;fill-rule:evenodd;stroke:none"
     d="m 195.53907,329.86326 -10.2266,15.1485 13.1524,18.1015 50.1953,-16.3086 z m 0,0"
     id="path266" />
  <path
     style="fill:#a31c2b;fill-opacity:1;fill-rule:evenodd;stroke:none"
     d="m 198.46487,363.11326 -21.293,6.9102 -0.6523,19.0195 53.3828,17.3438 z m 0,0"
     id="path268" />
  <path
     style="fill:#a31c2b;fill-opacity:1;fill-rule:evenodd;stroke:none"
     d="m 289.94527,669.89846 h 55.2618 l -43.7266,-15.8789 z m 0,0"
     id="path270" />
  <path
     style="fill:#a31c2b;fill-opacity:1;fill-rule:evenodd;stroke:none"
     d="m 221.99217,580.38286 17.0781,52.5546 12.004,-15.2929 z m 0,0"
     id="path272" />
  <path
     style="fill:#a31c2b;fill-opacity:1;fill-rule:evenodd;stroke:none"
     d="m 251.07427,617.64456 11.246,14.4101 21.2813,-6.9179 v -52.7774 z m 0,0"
     id="path274" />
  <path
     style="fill:#a31c2b;fill-opacity:1;fill-rule:evenodd;stroke:none"
     d="m 283.60157,625.13676 -0.01,22.3867 17.8867,6.4961 32.9922,-45.4102 z m 0,0"
     id="path276" />
  <path
     style="fill:#a31c2b;fill-opacity:1;fill-rule:evenodd;stroke:none"
     d="m 389.91407,168.69146 -44.707,32.4804 44.707,-12.8554 z m 0,0"
     id="path278" />
  <path
     style="fill:#a31c2b;fill-opacity:1;fill-rule:evenodd;stroke:none"
     d="m 497.50387,201.17186 -44.707,-32.4804 -0.7226,19.4257 z m 0,0"
     id="path280" />
  <path
     style="fill:#a31c2b;fill-opacity:1;fill-rule:evenodd;stroke:none"
     d="m 452.07427,188.11716 -17.5665,-5.0468 -13.1523,18.1054 31.0234,42.6953 z m 0,0"
     id="path282" />
  <path
     style="fill:#a31c2b;fill-opacity:1;fill-rule:evenodd;stroke:none"
     d="m 421.35547,201.17576 -13.1523,-18.1172 -18.2891,5.2579 v 56.1289 z m 0,0"
     id="path284" />
  <path
     style="fill:#a31c2b;fill-opacity:1;fill-rule:evenodd;stroke:none"
     d="m 603.64067,632.93746 17.0781,-52.5585 -28.6133,36.6796 z m 0,0"
     id="path286" />
  <path
     style="fill:#a31c2b;fill-opacity:1;fill-rule:evenodd;stroke:none"
     d="m 497.50777,669.89846 h 55.2579 l -10.8321,-16.1406 z m 0,0"
     id="path288" />
  <path
     style="fill:#a31c2b;fill-opacity:1;fill-rule:evenodd;stroke:none"
     d="m 541.93357,653.75786 17.1797,-6.2461 v -22.375 l -50.1953,-16.3086 z m 0,0"
     id="path290" />
  <path
     style="fill:#a31c2b;fill-opacity:1;fill-rule:evenodd;stroke:none"
     d="m 559.10937,625.13676 21.2891,6.9257 11.707,-15.0039 -32.9922,-45.4101 z m 0,0"
     id="path292" />
  <path
     style="fill:#a31c2b;fill-opacity:1;fill-rule:evenodd;stroke:none"
     d="m 665.42577,323.17186 -44.707,-32.4804 26.039,38.5468 z m 0,0"
     id="path294" />
  <path
     style="fill:#a31c2b;fill-opacity:1;fill-rule:evenodd;stroke:none"
     d="m 667.78127,435.53516 17.0742,-52.5586 -18.6992,5.3164 z m 0,0"
     id="path296" />
  <path
     style="fill:#a31c2b;fill-opacity:1;fill-rule:evenodd;stroke:none"
     d="m 666.15627,388.29296 -0.6289,-18.2656 -21.2813,-6.9141 -31.0195,42.6992 z m 0,0"
     id="path298" />
  <path
     style="fill:#a31c2b;fill-opacity:1;fill-rule:evenodd;stroke:none"
     d="m 644.24607,363.11326 13.1641,-18.1054 -10.6524,-15.7696 -53.3828,17.3438 z m 0,0"
     id="path300" />
  <path
     style="fill:#e66100;fill-opacity:1;fill-rule:evenodd;stroke:none"
     d="m 283.60157,299.42186 v 36.0274 l -34.2656,11.1328 34.2656,11.1328 -0.086,33.3164 33.2695,-45.9336 z m 0,0"
     id="path302" />
  <path
     style="fill:#e66100;fill-opacity:1;fill-rule:evenodd;stroke:none"
     d="m 283.51567,391.03126 -19.3477,26.4883 -34.2617,-11.1328 21.1719,29.1445 -21.1758,29.1523 53.6992,-17.4492 z m 0,0"
     id="path304" />
  <path
     style="fill:#e66100;fill-opacity:1;fill-rule:evenodd;stroke:none"
     d="m 249.33597,524.48826 34.2656,11.1328 v 36.0274 l 21.1758,-29.1485 31.6601,10.375 -33.4062,-45.8359 z m 0,0"
     id="path306" />
  <path
     style="fill:#e66100;fill-opacity:1;fill-rule:evenodd;stroke:none"
     d="m 336.43747,552.87496 19.211,26.586 -21.1758,29.1484 34.2617,-11.1328 21.1797,29.1484 v -56.4609 z m 0,0"
     id="path308" />
  <path
     style="fill:#e66100;fill-opacity:1;fill-rule:evenodd;stroke:none"
     d="m 508.23827,262.46096 -34.2656,11.1328 -21.1758,-29.1445 v 36.0273 l -31.7109,10.2149 53.9648,17.4453 z m 0,0"
     id="path310" />
  <path
     style="fill:#e66100;fill-opacity:1;fill-rule:evenodd;stroke:none"
     d="m 421.08597,290.69146 -31.1719,-10.2149 v -36.0273 l -21.1758,29.1406 -34.2656,-11.1289 33.1875,45.6758 z m 0,0"
     id="path312" />
  <path
     style="fill:#e66100;fill-opacity:1;fill-rule:evenodd;stroke:none"
     d="m 452.79687,626.62106 21.1758,-29.1445 34.2656,11.1328 -21.1758,-29.1484 19.6485,-26.9024 -53.9141,17.6055 z m 0,0"
     id="path314" />
  <path
     style="fill:#e66100;fill-opacity:1;fill-rule:evenodd;stroke:none"
     d="m 506.71097,552.55856 31.2226,-10.0586 21.1758,29.1485 v -36.0235 l 34.2617,-11.1367 -53.6953,-17.4492 z m 0,0"
     id="path316" />
  <path
     style="fill:#e66100;fill-opacity:1;fill-rule:evenodd;stroke:none"
     d="m 612.80467,464.68356 -21.1758,-29.1484 21.1758,-29.1445 -34.2617,11.1328 -19.5156,-27.0039 0.082,56.7148 z m 0,0"
     id="path318" />
  <path
     style="fill:#e66100;fill-opacity:1;fill-rule:evenodd;stroke:none"
     d="m 559.02737,390.51956 0.082,-32.8047 34.2656,-11.1328 -34.2617,-11.1328 v -36.0274 l -33.1875,45.6758 z m 0,0"
     id="path320" />
  <path
     style="fill:#a31c2b;fill-opacity:1;fill-rule:evenodd;stroke:none"
     d="m 345.20707,201.17186 -123.2149,89.5196 42.1758,-18.0157 19.4336,26.7461 v -53.4922 l 50.8711,16.5274 -19.4297,-26.7422 z m 0,0"
     id="path322" />
  <path
     style="fill:#a31c2b;fill-opacity:1;fill-rule:evenodd;stroke:none"
     d="m 174.92967,435.53516 47.0625,144.8477 -4.1015,-45.6797 31.4453,-10.2149 -50.875,-16.5312 31.4375,-43.2735 -31.4375,10.2149 z m 0,0"
     id="path324" />
  <path
     style="fill:#a31c2b;fill-opacity:1;fill-rule:evenodd;stroke:none"
     d="m 620.71877,290.69146 -123.2149,-89.5196 30.168,34.543 -19.4336,26.7461 50.8711,-16.5313 0.01,53.4883 19.4258,-26.7422 z m 0,0"
     id="path326" />
  <path
     style="fill:#a31c2b;fill-opacity:1;fill-rule:evenodd;stroke:none"
     d="m 345.20707,669.89846 h 152.3007 l -44.7109,-10.2149 v -33.0625 l -31.4414,43.2774 -31.4414,-43.2695 v 33.0546 z m 0,0"
     id="path328" />
  <path
     style="fill:#a31c2b;fill-opacity:1;fill-rule:evenodd;stroke:none"
     d="m 620.71487,580.37896 47.0664,-144.8438 -23.5313,39.3633 -31.4453,-10.2149 31.4453,43.2735 -50.8672,16.5312 31.4336,10.2149 z m 0,0"
     id="path330" />
  <path
     style="fill:#f8e35c;fill-opacity:1;fill-rule:evenodd;stroke:none"
     d="m 345.20707,384.21876 25.2773,34.7891 -40.8984,13.2851 15.6211,-21.4961 z m 0,0"
     id="path332" />
  <path
     style="fill:#f8e35c;fill-opacity:1;fill-rule:evenodd;stroke:none"
     d="m 349.01567,492.09766 40.8984,-13.2891 v 43.0039 l -15.6211,-21.5 z m 0,0"
     id="path334" />
  <path
     style="fill:#f8e35c;fill-opacity:1;fill-rule:evenodd;stroke:none"
     d="m 446.63277,347.25396 -25.2773,34.789 -25.2734,-34.7851 25.2695,8.2109 z m 0,0"
     id="path336" />
  <path
     style="fill:#f8e35c;fill-opacity:1;fill-rule:evenodd;stroke:none"
     d="m 452.79687,521.81246 v -43.0039 l 40.8945,13.2891 -25.2695,8.2109 z m 0,0"
     id="path338" />
  <path
     style="fill:#f8e35c;fill-opacity:1;fill-rule:evenodd;stroke:none"
     d="m 513.12497,432.29296 -40.8984,-13.289 25.2773,-34.7852 v 26.5703 z m 0,0"
     id="path340" />
  <path
     style="fill:#f8f06b;fill-opacity:1;fill-rule:evenodd;stroke:none"
     d="m 421.35547,382.04296 19.4297,26.7461 -19.4297,-6.3125 -19.4336,6.3125 z m 0,0"
     id="path342" />
  <path
     style="fill:#f8f06b;fill-opacity:1;fill-rule:evenodd;stroke:none"
     d="m 370.48047,419.00786 31.4414,-10.2188 -12.0078,16.5274 v 20.4375 z m 0,0"
     id="path344" />
  <path
     style="fill:#f8f06b;fill-opacity:1;fill-rule:evenodd;stroke:none"
     d="m 472.23047,419.00396 -19.4336,26.746 v -20.4296 l -12.0117,-16.5313 z m 0,0"
     id="path346" />
  <path
     style="fill:#f8f06b;fill-opacity:1;fill-rule:evenodd;stroke:none"
     d="m 389.91407,478.81246 v -33.0585 l 12.0078,16.5273 19.4336,6.3125 z m 0,0"
     id="path348" />
  <path
     style="fill:#f8f06b;fill-opacity:1;fill-rule:evenodd;stroke:none"
     d="m 452.79687,478.80856 -31.4414,-10.2148 19.4297,-6.3125 12.0117,-16.5313 z m 0,0"
     id="path350" />
  <path
     style="fill:#f5d12b;fill-opacity:1;fill-rule:evenodd;stroke:none"
     d="m 345.20707,330.72656 -14.5469,-4.7266 -13.875,19.0977 28.4219,39.1211 z m 0,0"
     id="path352" />
  <path
     style="fill:#f5d12b;fill-opacity:1;fill-rule:evenodd;stroke:none"
     d="m 345.20707,330.72656 v -15.293 l 22.4531,-7.2968 28.418,39.1211 z m 0,0"
     id="path354" />
  <path
     style="fill:#f5d12b;fill-opacity:1;fill-rule:evenodd;stroke:none"
     d="m 298.14457,475.57036 -8.9883,12.3711 13.875,19.0976 45.9844,-14.9414 z m 0,0"
     id="path356" />
  <path
     style="fill:#f5d12b;fill-opacity:1;fill-rule:evenodd;stroke:none"
     d="m 298.14457,475.57036 -14.543,-4.7266 v -23.6094 l 45.9844,-14.9414 z m 0,0"
     id="path358" />
  <path
     style="fill:#f5d12b;fill-opacity:1;fill-rule:evenodd;stroke:none"
     d="m 497.50387,330.72656 v -15.293 l -22.4531,-7.2968 -28.418,39.1172 z m 0,0"
     id="path360" />
  <path
     style="fill:#f5d12b;fill-opacity:1;fill-rule:evenodd;stroke:none"
     d="m 497.50387,330.72656 14.543,-4.7266 13.8789,19.0977 -28.4219,39.1211 z m 0,0"
     id="path362" />
  <path
     style="fill:#f5d12b;fill-opacity:1;fill-rule:evenodd;stroke:none"
     d="m 421.35547,565.08596 8.9922,12.3711 22.4492,-7.293 v -48.3516 z m 0,0"
     id="path364" />
  <path
     style="fill:#f5d12b;fill-opacity:1;fill-rule:evenodd;stroke:none"
     d="m 421.35547,565.08596 -8.9883,12.375 -22.4531,-7.2969 v -48.3516 z m 0,0"
     id="path366" />
  <path
     style="fill:#f5d12b;fill-opacity:1;fill-rule:evenodd;stroke:none"
     d="m 544.56637,475.56646 14.543,-4.7266 v -23.6055 l -45.9844,-14.9414 z m 0,0"
     id="path368" />
  <path
     style="fill:#f5d12b;fill-opacity:1;fill-rule:evenodd;stroke:none"
     d="m 544.56637,475.56646 8.9883,12.375 -13.875,19.0976 -45.9883,-14.9414 z m 0,0"
     id="path370" />
</svg>
