<?xml version="1.0" encoding="UTF-8" standalone="no"?>
<svg
   width="579.77502pt"
   height="579.77502pt"
   viewBox="0 0 579.77502 579.77502"
   version="1.1"
   id="svg349824"
   sodipodi:docname="2022-04-18_five_star_2.svg"
   inkscape:version="1.1.1 (3bf5ae0d25, 2021-09-20)"
   xmlns:inkscape="http://www.inkscape.org/namespaces/inkscape"
   xmlns:sodipodi="http://sodipodi.sourceforge.net/DTD/sodipodi-0.dtd"
   xmlns="http://www.w3.org/2000/svg"
   xmlns:svg="http://www.w3.org/2000/svg">
  <defs
     id="defs349828" />
  <sodipodi:namedview
     id="namedview349826"
     pagecolor="#ffffff"
     bordercolor="#666666"
     borderopacity="1.0"
     inkscape:pageshadow="2"
     inkscape:pageopacity="0.0"
     inkscape:pagecheckerboard="0"
     inkscape:document-units="pt"
     showgrid="false"
     inkscape:zoom="1.7408408"
     inkscape:cx="47.965329"
     inkscape:cy="303.30172"
     inkscape:window-width="1920"
     inkscape:window-height="1154"
     inkscape:window-x="0"
     inkscape:window-y="22"
     inkscape:window-maximized="1"
     inkscape:current-layer="svg349824" />
  <path
     style="fill:#ffffff;fill-opacity:1;fill-rule:evenodd;stroke:none"
     d="M 14.3758,200.368 119.6141,524.2508 H 460.1609 L 565.3992,200.368 289.8875,0.2 Z m 0,0"
     id="path349451" />
  <path
     style="fill:none;stroke:#ffffff;stroke-width:2;stroke-linecap:round;stroke-linejoin:round;stroke-miterlimit:10;stroke-opacity:1"
     d="M 579.575,289.8875 C 579.575,129.8953 449.8797,0.2 289.8875,0.2 129.8953,0.2 0.2,129.8953 0.2,289.8875 c 0,159.9922 129.6953,289.6875 289.6875,289.6875 159.9922,0 289.6875,-129.6953 289.6875,-289.6875 z m 0,0"
     id="path349453" />
  <path
     style="fill:none;stroke:#ffffff;stroke-width:2;stroke-linecap:round;stroke-linejoin:round;stroke-miterlimit:10;stroke-opacity:1"
     d="m 434.7313,289.8875 c 0,-79.9961 -64.8477,-144.8437 -144.8438,-144.8437 -79.9961,0 -144.8437,64.8476 -144.8437,144.8437 0,79.9961 64.8476,144.8438 144.8437,144.8438 79.9961,0 144.8438,-64.8477 144.8438,-144.8438 z m 0,0"
     id="path349455" />
  <path
     style="fill:none;stroke:#ffffff;stroke-width:2;stroke-linecap:round;stroke-linejoin:round;stroke-miterlimit:10;stroke-opacity:1"
     d="M 427.6414,245.1258 565.3992,200.368"
     id="path349457" />
  <path
     style="fill:none;stroke:#ffffff;stroke-width:2;stroke-linecap:round;stroke-linejoin:round;stroke-miterlimit:10;stroke-opacity:1"
     d="M 289.8875,145.0438 V 0.2"
     id="path349459" />
  <path
     style="fill:none;stroke:#ffffff;stroke-width:2;stroke-linecap:round;stroke-linejoin:round;stroke-miterlimit:10;stroke-opacity:1"
     d="M 152.1336,245.1297 14.3758,200.368"
     id="path349461" />
  <path
     style="fill:none;stroke:#ffffff;stroke-width:2;stroke-linecap:round;stroke-linejoin:round;stroke-miterlimit:10;stroke-opacity:1"
     d="M 204.7508,407.0711 119.6141,524.2508"
     id="path349463" />
  <path
     style="fill:none;stroke:#ffffff;stroke-width:2;stroke-linecap:round;stroke-linejoin:round;stroke-miterlimit:10;stroke-opacity:1"
     d="m 375.0242,407.0672 85.1367,117.1836"
     id="path349465" />
  <path
     style="fill:none;stroke:#ffffff;stroke-width:2;stroke-linecap:round;stroke-linejoin:round;stroke-miterlimit:10;stroke-opacity:1"
     d="M 289.8875,145.0438 152.1336,245.1297 204.7508,407.0672 H 375.0242 L 427.6414,245.1219 289.8875,145.0438"
     id="path349467" />
  <path
     style="fill:none;stroke:#ffffff;stroke-width:2;stroke-linecap:round;stroke-linejoin:round;stroke-miterlimit:10;stroke-opacity:1"
     d="m 434.7313,524.2508 c 0,-79.9961 -64.8477,-144.8438 -144.8438,-144.8438 -79.9961,0 -144.8437,64.8477 -144.8437,144.8438 0,79.9961 64.8476,144.8437 144.8437,144.8437 79.9961,0 144.8438,-64.8476 144.8438,-144.8437 z m 0,0"
     id="path349469" />
  <path
     style="fill:none;stroke:#ffffff;stroke-width:2;stroke-linecap:round;stroke-linejoin:round;stroke-miterlimit:10;stroke-opacity:1"
     d="m 657.6258,362.3094 c 0,-79.9961 -64.8477,-144.8438 -144.8438,-144.8438 -79.9961,0 -144.8476,64.8477 -144.8476,144.8438 0,79.9961 64.8515,144.8437 144.8476,144.8437 79.9961,0 144.8438,-64.8476 144.8438,-144.8437 z m 0,0"
     id="path349471" />
  <path
     style="fill:none;stroke:#ffffff;stroke-width:2;stroke-linecap:round;stroke-linejoin:round;stroke-miterlimit:10;stroke-opacity:1"
     d="m 572.4891,100.282 c 0,-79.9961 -64.8516,-144.8437 -144.8477,-144.8437 -79.9961,0 -144.8437,64.8476 -144.8437,144.8437 0,79.9961 64.8476,144.8477 144.8437,144.8477 79.9961,0 144.8477,-64.8516 144.8477,-144.8477 z m 0,0"
     id="path349473" />
  <path
     style="fill:none;stroke:#ffffff;stroke-width:2;stroke-linecap:round;stroke-linejoin:round;stroke-miterlimit:10;stroke-opacity:1"
     d="m 296.9773,100.282 c 0,-79.9961 -64.8515,-144.8437 -144.8476,-144.8437 -79.9922,0 -144.8438,64.8476 -144.8438,144.8437 0,79.9961 64.8516,144.8477 144.8438,144.8477 79.9961,0 144.8476,-64.8516 144.8476,-144.8477 z m 0,0"
     id="path349475" />
  <path
     style="fill:none;stroke:#ffffff;stroke-width:2;stroke-linecap:round;stroke-linejoin:round;stroke-miterlimit:10;stroke-opacity:1"
     d="m 211.8406,362.3094 c 0,-79.9961 -64.8515,-144.8438 -144.8476,-144.8438 -79.9961,0 -144.8438,64.8477 -144.8438,144.8438 0,79.9961 64.8477,144.8437 144.8438,144.8437 79.9961,0 144.8476,-64.8476 144.8476,-144.8437 z m 0,0"
     id="path349477" />
  <path
     style="fill:none;stroke:#ffffff;stroke-width:2;stroke-linecap:round;stroke-linejoin:round;stroke-miterlimit:10;stroke-opacity:1"
     d="m 264.4578,524.2508 c 0,-79.9961 -64.8515,-144.8438 -144.8437,-144.8438 -79.9961,0 -144.8477,64.8477 -144.8477,144.8438 0,79.9961 64.8516,144.8437 144.8477,144.8437 79.9922,0 144.8437,-64.8476 144.8437,-144.8437 z m 0,0"
     id="path349479" />
  <path
     style="fill:none;stroke:#ffffff;stroke-width:2;stroke-linecap:round;stroke-linejoin:round;stroke-miterlimit:10;stroke-opacity:1"
     d="m 159.2234,200.368 c 0,-79.9961 -64.8515,-144.8438 -144.8476,-144.8438 -79.9961,0 -144.8438,64.8477 -144.8438,144.8438 0,79.9961 64.8477,144.8476 144.8438,144.8476 79.9961,0 144.8476,-64.8515 144.8476,-144.8476 z m 0,0"
     id="path349481" />
  <path
     style="fill:none;stroke:#ffffff;stroke-width:2;stroke-linecap:round;stroke-linejoin:round;stroke-miterlimit:10;stroke-opacity:1"
     d="m 434.7313,0.2 c 0,-79.9961 -64.8477,-144.8477 -144.8438,-144.8477 -79.9961,0 -144.8437,64.8516 -144.8437,144.8477 0,79.9922 64.8476,144.8438 144.8437,144.8438 79.9961,0 144.8438,-64.8516 144.8438,-144.8438 z m 0,0"
     id="path349483" />
  <path
     style="fill:none;stroke:#ffffff;stroke-width:2;stroke-linecap:round;stroke-linejoin:round;stroke-miterlimit:10;stroke-opacity:1"
     d="m 710.243,200.368 c 0,-79.9961 -64.8477,-144.8438 -144.8438,-144.8438 -79.9961,0 -144.8476,64.8477 -144.8476,144.8438 0,79.9961 64.8515,144.8437 144.8476,144.8437 79.9961,0 144.8438,-64.8476 144.8438,-144.8437 z m 0,0"
     id="path349485" />
  <path
     style="fill:none;stroke:#ffffff;stroke-width:2;stroke-linecap:round;stroke-linejoin:round;stroke-miterlimit:10;stroke-opacity:1"
     d="m 605.0086,524.2508 c 0,-79.9961 -64.8516,-144.8438 -144.8477,-144.8438 -79.9921,0 -144.8437,64.8477 -144.8437,144.8438 0,79.9961 64.8516,144.8437 144.8437,144.8437 79.9961,0 144.8477,-64.8476 144.8477,-144.8437 z m 0,0"
     id="path349487" />
  <path
     style="fill:none;stroke:#ffffff;stroke-width:2;stroke-linecap:round;stroke-linejoin:round;stroke-miterlimit:10;stroke-opacity:1"
     d="M 289.8875,524.2508 28.6492,164.6883"
     id="path349489" />
  <path
     style="fill:none;stroke:#ffffff;stroke-width:2;stroke-linecap:round;stroke-linejoin:round;stroke-miterlimit:10;stroke-opacity:1"
     d="M 289.8875,524.2508 551.1258,164.6883"
     id="path349491" />
  <path
     style="fill:none;stroke:#ffffff;stroke-width:2;stroke-linecap:round;stroke-linejoin:round;stroke-miterlimit:10;stroke-opacity:1"
     d="M 66.993,362.3094 328.2313,2.7469"
     id="path349493" />
  <path
     style="fill:none;stroke:#ffffff;stroke-width:2;stroke-linecap:round;stroke-linejoin:round;stroke-miterlimit:10;stroke-opacity:1"
     d="M 66.993,362.3094 489.6844,499.6492"
     id="path349495" />
  <path
     style="fill:none;stroke:#ffffff;stroke-width:2;stroke-linecap:round;stroke-linejoin:round;stroke-miterlimit:10;stroke-opacity:1"
     d="M 152.1336,544.7273 V 100.282 L 574.825,237.6219"
     id="path349497" />
  <path
     style="fill:none;stroke:#ffffff;stroke-width:2;stroke-linecap:round;stroke-linejoin:round;stroke-miterlimit:10;stroke-opacity:1"
     d="M 4.95,237.6258 427.6414,100.282"
     id="path349499" />
  <path
     style="fill:none;stroke:#ffffff;stroke-width:2;stroke-linecap:round;stroke-linejoin:round;stroke-miterlimit:10;stroke-opacity:1"
     d="M 427.6453,544.7273 V 100.282"
     id="path349501" />
  <path
     style="fill:none;stroke:#ffffff;stroke-width:2;stroke-linecap:round;stroke-linejoin:round;stroke-miterlimit:10;stroke-opacity:1"
     d="M 90.0906,499.6531 512.782,362.3094 251.5438,2.7469"
     id="path349503" />
  <path
     style="fill:none;stroke:#ffffff;stroke-width:2;stroke-linecap:round;stroke-linejoin:round;stroke-miterlimit:10;stroke-opacity:1"
     d="M 573.4852,348.9734 25.7195,170.9969"
     id="path349505" />
  <path
     style="fill:none;stroke:#ffffff;stroke-width:2;stroke-linecap:round;stroke-linejoin:round;stroke-miterlimit:10;stroke-opacity:1"
     d="M 554.0555,408.7781 6.2898,230.8016"
     id="path349507" />
  <path
     style="fill:none;stroke:#ffffff;stroke-width:2;stroke-linecap:round;stroke-linejoin:round;stroke-miterlimit:10;stroke-opacity:1"
     d="M 321.3289,577.8641 V 1.9109"
     id="path349509" />
  <path
     style="fill:none;stroke:#ffffff;stroke-width:2;stroke-linecap:round;stroke-linejoin:round;stroke-miterlimit:10;stroke-opacity:1"
     d="M 258.4461,577.8641 V 1.9109"
     id="path349511" />
  <path
     style="fill:none;stroke:#ffffff;stroke-width:2;stroke-linecap:round;stroke-linejoin:round;stroke-miterlimit:10;stroke-opacity:1"
     d="m 146.0555,38.4266 338.5351,465.957"
     id="path349513" />
  <path
     style="fill:none;stroke:#ffffff;stroke-width:2;stroke-linecap:round;stroke-linejoin:round;stroke-miterlimit:10;stroke-opacity:1"
     d="m 95.1805,75.3875 338.539,465.9609"
     id="path349515" />
  <path
     style="fill:none;stroke:#ffffff;stroke-width:2;stroke-linecap:round;stroke-linejoin:round;stroke-miterlimit:10;stroke-opacity:1"
     d="M 25.7195,408.782 573.4852,230.8016"
     id="path349517" />
  <path
     style="fill:none;stroke:#ffffff;stroke-width:2;stroke-linecap:round;stroke-linejoin:round;stroke-miterlimit:10;stroke-opacity:1"
     d="M 6.2898,348.9734 554.0555,170.9969"
     id="path349519" />
  <path
     style="fill:none;stroke:#ffffff;stroke-width:2;stroke-linecap:round;stroke-linejoin:round;stroke-miterlimit:10;stroke-opacity:1"
     d="M 433.7195,38.4266 95.1844,504.3836"
     id="path349521" />
  <path
     style="fill:none;stroke:#ffffff;stroke-width:2;stroke-linecap:round;stroke-linejoin:round;stroke-miterlimit:10;stroke-opacity:1"
     d="M 484.5906,75.3875 146.0555,541.3484"
     id="path349523" />
  <path
     style="fill:none;stroke:#ffffff;stroke-width:2;stroke-linecap:round;stroke-linejoin:round;stroke-miterlimit:10;stroke-opacity:1"
     d="M 152.1297,-44.5617 -18.1437,479.493 H 597.9188 L 427.6453,-44.5617 -70.7609,317.5516 375.0242,641.4344 565.3992,55.5242 H 14.3758 L 204.7508,641.4344 650.5359,317.5516 152.1297,-44.5617"
     id="path349525" />
  <path
     style="fill:none;stroke:#ffffff;stroke-width:2;stroke-linecap:round;stroke-linejoin:round;stroke-miterlimit:10;stroke-opacity:1"
     d="m 174.5008,501.8758 c 0,-12.3555 -10.0195,-22.375 -22.375,-22.375 -12.3594,0 -22.375,10.0195 -22.375,22.375 0,12.3594 10.0156,22.375 22.375,22.375 12.3555,0 22.375,-10.0156 22.375,-22.375 z m 0,0"
     id="path349527" />
  <path
     style="fill:none;stroke:#ffffff;stroke-width:2;stroke-linecap:round;stroke-linejoin:round;stroke-miterlimit:10;stroke-opacity:1"
     d="m 153.2469,486.4109 c 0,-12.3632 -10.0235,-22.3867 -22.3906,-22.3867 -12.3633,0 -22.3868,10.0235 -22.3868,22.3867 0,12.3672 10.0235,22.3907 22.3868,22.3907 12.3671,0 22.3906,-10.0235 22.3906,-22.3907 z m 0,0"
     id="path349529" />
  <path
     style="fill:none;stroke:#ffffff;stroke-width:2;stroke-linecap:round;stroke-linejoin:round;stroke-miterlimit:10;stroke-opacity:1"
     d="m 455.8445,465.1336 c -11.7539,-3.8164 -24.375,2.6133 -28.1953,14.3672 -3.8164,11.7539 2.6133,24.375 14.3672,28.1953 11.75,3.8164 24.375,-2.6133 28.1953,-14.3672 3.8164,-11.7539 -2.6133,-24.375 -14.3672,-28.1953 z m 0,0"
     id="path349531" />
  <path
     style="fill:none;stroke:#ffffff;stroke-width:2;stroke-linecap:round;stroke-linejoin:round;stroke-miterlimit:10;stroke-opacity:1"
     d="m 434.5672,480.5711 c -11.7578,-3.8203 -24.3867,2.6133 -28.207,14.375 -3.8204,11.7578 2.6132,24.3867 14.3711,28.2109 11.7617,3.8203 24.3906,-2.6172 28.2109,-14.375 3.8203,-11.7617 -2.6133,-24.3906 -14.375,-28.2109 z m 0,0"
     id="path349533" />
  <path
     style="fill:none;stroke:#ffffff;stroke-width:2;stroke-linecap:round;stroke-linejoin:round;stroke-miterlimit:10;stroke-opacity:1"
     d="m 52.618,245.657 c 11.7539,-3.8203 18.1836,-16.4414 14.3672,-28.1953 -3.8204,-11.75 -16.4454,-18.1836 -28.1954,-14.3633 -11.7539,3.8164 -18.1835,16.4414 -14.3671,28.1914 3.8203,11.754 16.4414,18.1836 28.1953,14.3672 z m 0,0"
     id="path349535" />
  <path
     style="fill:none;stroke:#ffffff;stroke-width:2;stroke-linecap:round;stroke-linejoin:round;stroke-miterlimit:10;stroke-opacity:1"
     d="m 60.7586,220.6609 c 11.7578,-3.8203 18.1914,-16.4492 14.3711,-28.207 -3.8203,-11.7617 -16.4492,-18.1953 -28.2109,-14.375 -11.7579,3.8203 -18.1915,16.4492 -14.3711,28.2109 3.8203,11.7579 16.4492,18.1954 28.2109,14.3711 z m 0,0"
     id="path349537" />
  <path
     style="fill:none;stroke:#ffffff;stroke-width:2;stroke-linecap:round;stroke-linejoin:round;stroke-miterlimit:10;stroke-opacity:1"
     d="m 174.5008,501.8758 c 0,-12.3555 -10.0195,-22.375 -22.375,-22.375 -12.3594,0 -22.375,10.0195 -22.375,22.375 0,12.3594 10.0156,22.375 22.375,22.375 12.3555,0 22.375,-10.0156 22.375,-22.375 z m 0,0"
     id="path349539" />
  <path
     style="fill:none;stroke:#ffffff;stroke-width:2;stroke-linecap:round;stroke-linejoin:round;stroke-miterlimit:10;stroke-opacity:1"
     d="m 153.2469,486.4109 c 0,-12.3632 -10.0235,-22.3867 -22.3906,-22.3867 -12.3633,0 -22.3868,10.0235 -22.3868,22.3867 0,12.3672 10.0235,22.3907 22.3868,22.3907 12.3671,0 22.3906,-10.0235 22.3906,-22.3907 z m 0,0"
     id="path349541" />
  <path
     style="fill:none;stroke:#ffffff;stroke-width:2;stroke-linecap:round;stroke-linejoin:round;stroke-miterlimit:10;stroke-opacity:1"
     d="m 507.8406,186.2078 c -7.2617,9.9961 -5.0468,23.9883 4.9532,31.2539 9.996,7.2617 23.9882,5.0469 31.25,-4.9492 7.2656,-10 5.0468,-23.9922 -4.9493,-31.2539 -9.9961,-7.2656 -23.9882,-5.0469 -31.2539,4.9492 z m 0,0"
     id="path349543" />
  <path
     style="fill:none;stroke:#ffffff;stroke-width:2;stroke-linecap:round;stroke-linejoin:round;stroke-miterlimit:10;stroke-opacity:1"
     d="m 515.95,211.2117 c -7.2695,10.0039 -5.0508,24.0039 4.9492,31.2696 10.0039,7.2695 24.0039,5.0507 31.2735,-4.9532 7.2656,-10 5.0507,-24 -4.9532,-31.2695 -10.0039,-7.2656 -24.0039,-5.0508 -31.2695,4.9531 z m 0,0"
     id="path349545" />
  <path
     style="fill:none;stroke:#ffffff;stroke-width:2;stroke-linecap:round;stroke-linejoin:round;stroke-miterlimit:10;stroke-opacity:1"
     d="m 258.6336,50.5633 c 7.2617,9.9961 21.2539,12.2109 31.2539,4.9492 9.9961,-7.2656 12.2109,-21.2578 4.9492,-31.2539 -7.2617,-9.9961 -21.2578,-12.2148 -31.2539,-4.9492 -9.9961,7.2617 -12.2109,21.2539 -4.9492,31.2539 z m 0,0"
     id="path349547" />
  <path
     style="fill:none;stroke:#ffffff;stroke-width:2;stroke-linecap:round;stroke-linejoin:round;stroke-miterlimit:10;stroke-opacity:1"
     d="m 284.9188,50.5789 c 7.2656,10.0039 21.2695,12.2188 31.2695,4.9531 10.0039,-7.2695 12.2226,-21.2695 4.9531,-31.2695 -7.2656,-10.0039 -21.2656,-12.2227 -31.2695,-4.9531 -10.0039,7.2656 -12.2227,21.2656 -4.9531,31.2695 z m 0,0"
     id="path349549" />
  <path
     style="fill:none;stroke:#ffffff;stroke-width:2;stroke-linecap:round;stroke-linejoin:round;stroke-miterlimit:10;stroke-opacity:1"
     d="m 152.1258,501.8758 61.6133,22.375 44.707,-10.2149"
     id="path349551" />
  <path
     style="fill:none;stroke:#ffffff;stroke-width:2;stroke-linecap:round;stroke-linejoin:round;stroke-miterlimit:10;stroke-opacity:1"
     d="M 130.8563,486.4109 90.5281,434.7352 86.4266,389.0555"
     id="path349553" />
  <path
     style="fill:none;stroke:#ffffff;stroke-width:2;stroke-linecap:round;stroke-linejoin:round;stroke-miterlimit:10;stroke-opacity:1"
     d="M 53.8367,199.3719 90.5242,145.0438"
     id="path349555" />
  <path
     style="fill:none;stroke:#ffffff;stroke-width:2;stroke-linecap:round;stroke-linejoin:round;stroke-miterlimit:10;stroke-opacity:1"
     d="M 90.5281,434.7352 366.0359,55.5242"
     id="path349557" />
  <path
     style="fill:none;stroke:#ffffff;stroke-width:2;stroke-linecap:round;stroke-linejoin:round;stroke-miterlimit:10;stroke-opacity:1"
     d="M 213.7391,524.2508 489.2508,145.0438"
     id="path349559" />
  <path
     style="fill:none;stroke:#ffffff;stroke-width:2;stroke-linecap:round;stroke-linejoin:round;stroke-miterlimit:10;stroke-opacity:1"
     d="M 366.0398,524.2508 90.5242,145.0438"
     id="path349561" />
  <path
     style="fill:none;stroke:#ffffff;stroke-width:2;stroke-linecap:round;stroke-linejoin:round;stroke-miterlimit:10;stroke-opacity:1"
     d="M 489.2508,434.7313 213.7391,55.5242"
     id="path349563" />
  <path
     style="fill:none;stroke:#ffffff;stroke-width:2;stroke-linecap:round;stroke-linejoin:round;stroke-miterlimit:10;stroke-opacity:1"
     d="M 90.5242,145.0438 536.3133,289.8875"
     id="path349565" />
  <path
     style="fill:none;stroke:#ffffff;stroke-width:2;stroke-linecap:round;stroke-linejoin:round;stroke-miterlimit:10;stroke-opacity:1"
     d="M 43.4617,289.8875 489.2508,434.7313"
     id="path349567" />
  <path
     style="fill:none;stroke:#ffffff;stroke-width:2;stroke-linecap:round;stroke-linejoin:round;stroke-miterlimit:10;stroke-opacity:1"
     d="M 536.3133,289.8836 90.5281,434.7313"
     id="path349569" />
  <path
     style="fill:none;stroke:#ffffff;stroke-width:2;stroke-linecap:round;stroke-linejoin:round;stroke-miterlimit:10;stroke-opacity:1"
     d="M 489.2508,145.0438 43.4617,289.8875"
     id="path349571" />
  <path
     style="fill:none;stroke:#ffffff;stroke-width:2;stroke-linecap:round;stroke-linejoin:round;stroke-miterlimit:10;stroke-opacity:1"
     d="M 366.032,55.5242 V 524.2508"
     id="path349573" />
  <path
     style="fill:none;stroke:#ffffff;stroke-width:2;stroke-linecap:round;stroke-linejoin:round;stroke-miterlimit:10;stroke-opacity:1"
     d="M 213.7391,55.5242 V 524.2508"
     id="path349575" />
  <path
     style="fill:none;stroke:#000000;stroke-width:0.4;stroke-linecap:round;stroke-linejoin:round;stroke-miterlimit:10;stroke-opacity:1"
     d="M 579.575,289.8875 C 579.575,129.8953 449.8797,0.2 289.8875,0.2 129.8953,0.2 0.2,129.8953 0.2,289.8875 c 0,159.9922 129.6953,289.6875 289.6875,289.6875 159.9922,0 289.6875,-129.6953 289.6875,-289.6875 z m 0,0"
     id="path349577" />
  <path
     style="fill:none;stroke:#000000;stroke-width:0.4;stroke-linecap:round;stroke-linejoin:round;stroke-miterlimit:10;stroke-opacity:1"
     d="M 289.8875,0.2 14.3758,200.368 119.6141,524.2508 H 460.1609 L 565.3992,200.368 289.8875,0.2"
     id="path349579" />
  <path
     style="fill:none;stroke:#000000;stroke-width:0.4;stroke-linecap:round;stroke-linejoin:round;stroke-miterlimit:10;stroke-opacity:1"
     d="m 434.7313,289.8875 c 0,-79.9961 -64.8477,-144.8437 -144.8438,-144.8437 -79.9961,0 -144.8437,64.8476 -144.8437,144.8437 0,79.9961 64.8476,144.8438 144.8437,144.8438 79.9961,0 144.8438,-64.8477 144.8438,-144.8438 z m 0,0"
     id="path349581" />
  <path
     style="fill:none;stroke:#000000;stroke-width:0.4;stroke-linecap:round;stroke-linejoin:round;stroke-miterlimit:10;stroke-opacity:1"
     d="M 427.6414,245.1258 565.3992,200.368"
     id="path349583" />
  <path
     style="fill:none;stroke:#000000;stroke-width:0.4;stroke-linecap:round;stroke-linejoin:round;stroke-miterlimit:10;stroke-opacity:1"
     d="M 289.8875,145.0438 V 0.2"
     id="path349585" />
  <path
     style="fill:none;stroke:#000000;stroke-width:0.4;stroke-linecap:round;stroke-linejoin:round;stroke-miterlimit:10;stroke-opacity:1"
     d="M 152.1336,245.1297 14.3758,200.368"
     id="path349587" />
  <path
     style="fill:none;stroke:#000000;stroke-width:0.4;stroke-linecap:round;stroke-linejoin:round;stroke-miterlimit:10;stroke-opacity:1"
     d="M 204.7508,407.0711 119.6141,524.2508"
     id="path349589" />
  <path
     style="fill:none;stroke:#000000;stroke-width:0.4;stroke-linecap:round;stroke-linejoin:round;stroke-miterlimit:10;stroke-opacity:1"
     d="m 375.0242,407.0672 85.1367,117.1836"
     id="path349591" />
  <path
     style="fill:none;stroke:#000000;stroke-width:0.4;stroke-linecap:round;stroke-linejoin:round;stroke-miterlimit:10;stroke-opacity:1"
     d="M 289.8875,145.0438 152.1336,245.1297 204.7508,407.0672 H 375.0242 L 427.6414,245.1219 289.8875,145.0438"
     id="path349593" />
  <path
     style="fill:none;stroke:#000000;stroke-width:0.4;stroke-linecap:round;stroke-linejoin:round;stroke-miterlimit:10;stroke-opacity:1"
     d="m 434.7313,524.2508 c 0,-79.9961 -64.8477,-144.8438 -144.8438,-144.8438 -79.9961,0 -144.8437,64.8477 -144.8437,144.8438 0,79.9961 64.8476,144.8476 144.8437,144.8476 79.9961,0 144.8438,-64.8515 144.8438,-144.8476 z m 0,0"
     id="path349595" />
  <path
     style="fill:none;stroke:#000000;stroke-width:0.4;stroke-linecap:round;stroke-linejoin:round;stroke-miterlimit:10;stroke-opacity:1"
     d="m 657.6258,362.3094 c 0,-79.9961 -64.8477,-144.8438 -144.8438,-144.8438 -79.9961,0 -144.8476,64.8477 -144.8476,144.8438 0,79.9961 64.8515,144.8437 144.8476,144.8437 79.9961,0 144.8438,-64.8476 144.8438,-144.8437 z m 0,0"
     id="path349597" />
  <path
     style="fill:none;stroke:#000000;stroke-width:0.4;stroke-linecap:round;stroke-linejoin:round;stroke-miterlimit:10;stroke-opacity:1"
     d="m 572.4891,100.282 c 0,-79.9961 -64.8516,-144.8437 -144.8477,-144.8437 -79.9961,0 -144.8437,64.8476 -144.8437,144.8437 0,79.9961 64.8476,144.8477 144.8437,144.8477 79.9961,0 144.8477,-64.8516 144.8477,-144.8477 z m 0,0"
     id="path349599" />
  <path
     style="fill:none;stroke:#000000;stroke-width:0.4;stroke-linecap:round;stroke-linejoin:round;stroke-miterlimit:10;stroke-opacity:1"
     d="m 296.9773,100.282 c 0,-79.9961 -64.8515,-144.8437 -144.8476,-144.8437 -79.9922,0 -144.8438,64.8476 -144.8438,144.8437 0,79.9961 64.8516,144.8477 144.8438,144.8477 79.9961,0 144.8476,-64.8516 144.8476,-144.8477 z m 0,0"
     id="path349601" />
  <path
     style="fill:none;stroke:#000000;stroke-width:0.4;stroke-linecap:round;stroke-linejoin:round;stroke-miterlimit:10;stroke-opacity:1"
     d="m 211.8406,362.3094 c 0,-79.9961 -64.8515,-144.8438 -144.8476,-144.8438 -79.9961,0 -144.8438,64.8477 -144.8438,144.8438 0,79.9961 64.8477,144.8437 144.8438,144.8437 79.9961,0 144.8476,-64.8476 144.8476,-144.8437 z m 0,0"
     id="path349603" />
  <path
     style="fill:none;stroke:#000000;stroke-width:0.4;stroke-linecap:round;stroke-linejoin:round;stroke-miterlimit:10;stroke-opacity:1"
     d="m 264.4578,524.2508 c 0,-79.9961 -64.8515,-144.8438 -144.8437,-144.8438 -79.9961,0 -144.8477,64.8477 -144.8477,144.8438 0,79.9961 64.8516,144.8476 144.8477,144.8476 79.9922,0 144.8437,-64.8515 144.8437,-144.8476 z m 0,0"
     id="path349605" />
  <path
     style="fill:none;stroke:#000000;stroke-width:0.4;stroke-linecap:round;stroke-linejoin:round;stroke-miterlimit:10;stroke-opacity:1"
     d="m 159.2234,200.368 c 0,-79.9961 -64.8515,-144.8438 -144.8476,-144.8438 -79.9961,0 -144.8438,64.8477 -144.8438,144.8438 0,79.9961 64.8477,144.8476 144.8438,144.8476 79.9961,0 144.8476,-64.8515 144.8476,-144.8476 z m 0,0"
     id="path349607" />
  <path
     style="fill:none;stroke:#000000;stroke-width:0.4;stroke-linecap:round;stroke-linejoin:round;stroke-miterlimit:10;stroke-opacity:1"
     d="m 434.7313,0.2 c 0,-79.9961 -64.8477,-144.8477 -144.8438,-144.8477 -79.9961,0 -144.8437,64.8516 -144.8437,144.8477 0,79.9961 64.8476,144.8438 144.8437,144.8438 79.9961,0 144.8438,-64.8477 144.8438,-144.8438 z m 0,0"
     id="path349609" />
  <path
     style="fill:none;stroke:#000000;stroke-width:0.4;stroke-linecap:round;stroke-linejoin:round;stroke-miterlimit:10;stroke-opacity:1"
     d="m 710.243,200.368 c 0,-79.9961 -64.8477,-144.8438 -144.8438,-144.8438 -79.9961,0 -144.8476,64.8477 -144.8476,144.8438 0,79.9961 64.8515,144.8437 144.8476,144.8437 79.9961,0 144.8438,-64.8476 144.8438,-144.8437 z m 0,0"
     id="path349611" />
  <path
     style="fill:none;stroke:#000000;stroke-width:0.4;stroke-linecap:round;stroke-linejoin:round;stroke-miterlimit:10;stroke-opacity:1"
     d="m 605.0086,524.2508 c 0,-79.9961 -64.8516,-144.8438 -144.8477,-144.8438 -79.9921,0 -144.8437,64.8477 -144.8437,144.8438 0,79.9961 64.8516,144.8476 144.8437,144.8476 79.9961,0 144.8477,-64.8515 144.8477,-144.8476 z m 0,0"
     id="path349613" />
  <path
     style="fill:none;stroke:#000000;stroke-width:0.4;stroke-linecap:round;stroke-linejoin:round;stroke-miterlimit:10;stroke-opacity:1"
     d="M 289.8875,524.2508 28.6492,164.6883"
     id="path349615" />
  <path
     style="fill:none;stroke:#000000;stroke-width:0.4;stroke-linecap:round;stroke-linejoin:round;stroke-miterlimit:10;stroke-opacity:1"
     d="M 289.8875,524.2508 551.1258,164.6883"
     id="path349617" />
  <path
     style="fill:none;stroke:#000000;stroke-width:0.4;stroke-linecap:round;stroke-linejoin:round;stroke-miterlimit:10;stroke-opacity:1"
     d="M 66.993,362.3094 328.2313,2.7469"
     id="path349619" />
  <path
     style="fill:none;stroke:#000000;stroke-width:0.4;stroke-linecap:round;stroke-linejoin:round;stroke-miterlimit:10;stroke-opacity:1"
     d="M 66.993,362.3094 489.6844,499.6492"
     id="path349621" />
  <path
     style="fill:none;stroke:#000000;stroke-width:0.4;stroke-linecap:round;stroke-linejoin:round;stroke-miterlimit:10;stroke-opacity:1"
     d="M 152.1336,544.7273 V 100.282 L 574.825,237.6219"
     id="path349623" />
  <path
     style="fill:none;stroke:#000000;stroke-width:0.4;stroke-linecap:round;stroke-linejoin:round;stroke-miterlimit:10;stroke-opacity:1"
     d="M 4.95,237.6258 427.6414,100.282"
     id="path349625" />
  <path
     style="fill:none;stroke:#000000;stroke-width:0.4;stroke-linecap:round;stroke-linejoin:round;stroke-miterlimit:10;stroke-opacity:1"
     d="M 427.6453,544.7273 V 100.282"
     id="path349627" />
  <path
     style="fill:none;stroke:#000000;stroke-width:0.4;stroke-linecap:round;stroke-linejoin:round;stroke-miterlimit:10;stroke-opacity:1"
     d="M 90.0906,499.6531 512.782,362.3094 251.5438,2.7469"
     id="path349629" />
  <path
     style="fill:none;stroke:#000000;stroke-width:0.4;stroke-linecap:round;stroke-linejoin:round;stroke-miterlimit:10;stroke-opacity:1"
     d="M 573.4852,348.9734 25.7195,170.9969"
     id="path349631" />
  <path
     style="fill:none;stroke:#000000;stroke-width:0.4;stroke-linecap:round;stroke-linejoin:round;stroke-miterlimit:10;stroke-opacity:1"
     d="M 554.0555,408.7781 6.2898,230.8016"
     id="path349633" />
  <path
     style="fill:none;stroke:#000000;stroke-width:0.4;stroke-linecap:round;stroke-linejoin:round;stroke-miterlimit:10;stroke-opacity:1"
     d="M 321.3289,577.8641 V 1.9109"
     id="path349635" />
  <path
     style="fill:none;stroke:#000000;stroke-width:0.4;stroke-linecap:round;stroke-linejoin:round;stroke-miterlimit:10;stroke-opacity:1"
     d="M 258.4461,577.8641 V 1.9109"
     id="path349637" />
  <path
     style="fill:none;stroke:#000000;stroke-width:0.4;stroke-linecap:round;stroke-linejoin:round;stroke-miterlimit:10;stroke-opacity:1"
     d="m 146.0555,38.4266 338.5351,465.957"
     id="path349639" />
  <path
     style="fill:none;stroke:#000000;stroke-width:0.4;stroke-linecap:round;stroke-linejoin:round;stroke-miterlimit:10;stroke-opacity:1"
     d="m 95.1805,75.3914 338.539,465.957"
     id="path349641" />
  <path
     style="fill:none;stroke:#000000;stroke-width:0.4;stroke-linecap:round;stroke-linejoin:round;stroke-miterlimit:10;stroke-opacity:1"
     d="M 25.7195,408.782 573.4852,230.8016"
     id="path349643" />
  <path
     style="fill:none;stroke:#000000;stroke-width:0.4;stroke-linecap:round;stroke-linejoin:round;stroke-miterlimit:10;stroke-opacity:1"
     d="M 6.2898,348.9773 554.0555,170.9969"
     id="path349645" />
  <path
     style="fill:none;stroke:#000000;stroke-width:0.4;stroke-linecap:round;stroke-linejoin:round;stroke-miterlimit:10;stroke-opacity:1"
     d="M 433.7195,38.4266 95.1844,504.3836"
     id="path349647" />
  <path
     style="fill:none;stroke:#000000;stroke-width:0.4;stroke-linecap:round;stroke-linejoin:round;stroke-miterlimit:10;stroke-opacity:1"
     d="M 484.5906,75.3875 146.0555,541.3484"
     id="path349649" />
  <path
     style="fill:none;stroke:#000000;stroke-width:0.4;stroke-linecap:round;stroke-linejoin:round;stroke-miterlimit:10;stroke-opacity:1"
     d="M 152.1297,-44.5617 -18.1437,479.493 H 597.9188 L 427.6453,-44.5617 -70.7609,317.5516 375.0242,641.4344 565.3992,55.5242 H 14.3758 L 204.7508,641.4344 650.5359,317.5516 152.1297,-44.5617"
     id="path349651" />
  <path
     style="fill:none;stroke:#000000;stroke-width:0.4;stroke-linecap:round;stroke-linejoin:round;stroke-miterlimit:10;stroke-opacity:1"
     d="m 174.5008,501.8758 c 0,-12.3555 -10.0195,-22.375 -22.375,-22.375 -12.3594,0 -22.375,10.0195 -22.375,22.375 0,12.3594 10.0156,22.375 22.375,22.375 12.3555,0 22.375,-10.0156 22.375,-22.375 z m 0,0"
     id="path349653" />
  <path
     style="fill:none;stroke:#000000;stroke-width:0.4;stroke-linecap:round;stroke-linejoin:round;stroke-miterlimit:10;stroke-opacity:1"
     d="m 153.2469,486.4109 c 0,-12.3632 -10.0235,-22.3867 -22.3906,-22.3867 -12.3633,0 -22.3868,10.0235 -22.3868,22.3867 0,12.3672 10.0235,22.3907 22.3868,22.3907 12.3671,0 22.3906,-10.0235 22.3906,-22.3907 z m 0,0"
     id="path349655" />
  <path
     style="fill:none;stroke:#000000;stroke-width:0.4;stroke-linecap:round;stroke-linejoin:round;stroke-miterlimit:10;stroke-opacity:1"
     d="m 455.8445,465.1336 c -11.7539,-3.8164 -24.375,2.6133 -28.1953,14.3672 -3.8164,11.7539 2.6133,24.375 14.3672,28.1953 11.75,3.8164 24.375,-2.6133 28.1953,-14.3672 3.8164,-11.7539 -2.6133,-24.375 -14.3672,-28.1953 z m 0,0"
     id="path349657" />
  <path
     style="fill:none;stroke:#000000;stroke-width:0.4;stroke-linecap:round;stroke-linejoin:round;stroke-miterlimit:10;stroke-opacity:1"
     d="m 434.5672,480.5711 c -11.7578,-3.8203 -24.3867,2.6133 -28.207,14.375 -3.8204,11.7578 2.6132,24.3867 14.3711,28.2109 11.7617,3.8203 24.3906,-2.6172 28.2109,-14.375 3.8203,-11.7578 -2.6133,-24.3906 -14.375,-28.2109 z m 0,0"
     id="path349659" />
  <path
     style="fill:none;stroke:#000000;stroke-width:0.4;stroke-linecap:round;stroke-linejoin:round;stroke-miterlimit:10;stroke-opacity:1"
     d="m 52.618,245.657 c 11.7539,-3.8203 18.1836,-16.4414 14.3672,-28.1953 -3.8204,-11.75 -16.4454,-18.1836 -28.1954,-14.3633 -11.7539,3.8164 -18.1835,16.4414 -14.3671,28.1914 3.8203,11.754 16.4414,18.1836 28.1953,14.3672 z m 0,0"
     id="path349661" />
  <path
     style="fill:none;stroke:#000000;stroke-width:0.4;stroke-linecap:round;stroke-linejoin:round;stroke-miterlimit:10;stroke-opacity:1"
     d="m 60.7586,220.6609 c 11.7578,-3.8203 18.1914,-16.4492 14.3711,-28.207 -3.8203,-11.7617 -16.4492,-18.1953 -28.2109,-14.375 -11.7579,3.8203 -18.1915,16.4492 -14.3711,28.2109 3.8203,11.7579 16.4492,18.1954 28.2109,14.3711 z m 0,0"
     id="path349663" />
  <path
     style="fill:none;stroke:#000000;stroke-width:0.4;stroke-linecap:round;stroke-linejoin:round;stroke-miterlimit:10;stroke-opacity:1"
     d="m 174.5008,501.8758 c 0,-12.3555 -10.0195,-22.375 -22.375,-22.375 -12.3594,0 -22.375,10.0195 -22.375,22.375 0,12.3594 10.0156,22.375 22.375,22.375 12.3555,0 22.375,-10.0156 22.375,-22.375 z m 0,0"
     id="path349665" />
  <path
     style="fill:none;stroke:#000000;stroke-width:0.4;stroke-linecap:round;stroke-linejoin:round;stroke-miterlimit:10;stroke-opacity:1"
     d="m 153.2469,486.4109 c 0,-12.3632 -10.0235,-22.3867 -22.3906,-22.3867 -12.3633,0 -22.3868,10.0235 -22.3868,22.3867 0,12.3672 10.0235,22.3907 22.3868,22.3907 12.3671,0 22.3906,-10.0235 22.3906,-22.3907 z m 0,0"
     id="path349667" />
  <path
     style="fill:none;stroke:#000000;stroke-width:0.4;stroke-linecap:round;stroke-linejoin:round;stroke-miterlimit:10;stroke-opacity:1"
     d="m 507.8406,186.2078 c -7.2617,9.9961 -5.0468,23.9883 4.9532,31.2539 9.996,7.2617 23.9882,5.0469 31.25,-4.9492 7.2656,-10 5.0468,-23.9922 -4.9493,-31.2539 -9.9961,-7.2656 -23.9882,-5.0469 -31.2539,4.9492 z m 0,0"
     id="path349669" />
  <path
     style="fill:none;stroke:#000000;stroke-width:0.4;stroke-linecap:round;stroke-linejoin:round;stroke-miterlimit:10;stroke-opacity:1"
     d="m 515.95,211.2117 c -7.2695,10.0039 -5.0508,24.0039 4.9492,31.2696 10.0039,7.2695 24.0039,5.0507 31.2735,-4.9493 7.2656,-10.0039 5.0507,-24.0039 -4.9532,-31.2734 -10.0039,-7.2656 -24.0039,-5.0508 -31.2695,4.9531 z m 0,0"
     id="path349671" />
  <path
     style="fill:none;stroke:#000000;stroke-width:0.4;stroke-linecap:round;stroke-linejoin:round;stroke-miterlimit:10;stroke-opacity:1"
     d="m 258.6336,50.5633 c 7.2617,9.9961 21.2539,12.2109 31.2539,4.9492 9.9961,-7.2656 12.2109,-21.2578 4.9492,-31.2539 -7.2617,-9.9961 -21.2578,-12.2148 -31.2539,-4.9492 -9.9961,7.2617 -12.2109,21.2539 -4.9492,31.2539 z m 0,0"
     id="path349673" />
  <path
     style="fill:none;stroke:#000000;stroke-width:0.4;stroke-linecap:round;stroke-linejoin:round;stroke-miterlimit:10;stroke-opacity:1"
     d="m 284.9188,50.5789 c 7.2656,10.0039 21.2695,12.2227 31.2695,4.9531 10.0039,-7.2656 12.2226,-21.2695 4.9531,-31.2695 -7.2656,-10.0039 -21.2656,-12.2227 -31.2695,-4.9531 -10.0039,7.2656 -12.2227,21.2656 -4.9531,31.2695 z m 0,0"
     id="path349675" />
  <path
     style="fill:none;stroke:#000000;stroke-width:0.4;stroke-linecap:round;stroke-linejoin:round;stroke-miterlimit:10;stroke-opacity:1"
     d="m 152.1258,501.8758 61.6133,22.375 44.707,-10.2149"
     id="path349677" />
  <path
     style="fill:none;stroke:#000000;stroke-width:0.4;stroke-linecap:round;stroke-linejoin:round;stroke-miterlimit:10;stroke-opacity:1"
     d="M 130.8563,486.4109 90.5281,434.7352 86.4266,389.0555"
     id="path349679" />
  <path
     style="fill:none;stroke:#000000;stroke-width:0.4;stroke-linecap:round;stroke-linejoin:round;stroke-miterlimit:10;stroke-opacity:1"
     d="M 53.8367,199.3719 90.5242,145.0438"
     id="path349681" />
  <path
     style="fill:none;stroke:#000000;stroke-width:0.4;stroke-linecap:round;stroke-linejoin:round;stroke-miterlimit:10;stroke-opacity:1"
     d="M 90.5281,434.7352 366.0359,55.5242"
     id="path349683" />
  <path
     style="fill:none;stroke:#000000;stroke-width:0.4;stroke-linecap:round;stroke-linejoin:round;stroke-miterlimit:10;stroke-opacity:1"
     d="M 213.7391,524.2508 489.2508,145.0438"
     id="path349685" />
  <path
     style="fill:none;stroke:#000000;stroke-width:0.4;stroke-linecap:round;stroke-linejoin:round;stroke-miterlimit:10;stroke-opacity:1"
     d="M 366.0398,524.2508 90.5242,145.0438"
     id="path349687" />
  <path
     style="fill:none;stroke:#000000;stroke-width:0.4;stroke-linecap:round;stroke-linejoin:round;stroke-miterlimit:10;stroke-opacity:1"
     d="M 489.2508,434.7313 213.7391,55.5242"
     id="path349689" />
  <path
     style="fill:none;stroke:#000000;stroke-width:0.4;stroke-linecap:round;stroke-linejoin:round;stroke-miterlimit:10;stroke-opacity:1"
     d="M 90.5242,145.0438 536.3133,289.8875"
     id="path349691" />
  <path
     style="fill:none;stroke:#000000;stroke-width:0.4;stroke-linecap:round;stroke-linejoin:round;stroke-miterlimit:10;stroke-opacity:1"
     d="M 43.4617,289.8875 489.2508,434.7352"
     id="path349693" />
  <path
     style="fill:none;stroke:#000000;stroke-width:0.4;stroke-linecap:round;stroke-linejoin:round;stroke-miterlimit:10;stroke-opacity:1"
     d="M 536.3133,289.8836 90.5281,434.7313"
     id="path349695" />
  <path
     style="fill:none;stroke:#000000;stroke-width:0.4;stroke-linecap:round;stroke-linejoin:round;stroke-miterlimit:10;stroke-opacity:1"
     d="M 489.2508,145.0438 43.4617,289.8875"
     id="path349697" />
  <path
     style="fill:none;stroke:#000000;stroke-width:0.4;stroke-linecap:round;stroke-linejoin:round;stroke-miterlimit:10;stroke-opacity:1"
     d="M 366.032,55.5242 V 524.2508"
     id="path349699" />
  <path
     style="fill:none;stroke:#000000;stroke-width:0.4;stroke-linecap:round;stroke-linejoin:round;stroke-miterlimit:10;stroke-opacity:1"
     d="M 213.7391,55.5242 V 524.2508"
     id="path349701" />
  <path
     style="fill:#231e30;fill-opacity:1;fill-rule:evenodd;stroke:none"
     d="m 119.1453,471.4031 -11.543,15.8867 12.0118,36.961 h 38.8632 l 11.5352,-15.8789 -17.8867,-6.4961 -0.024,-22.375 -21.25,6.9062 z m 0,0"
     id="path349703" />
  <path
     style="fill:#231e30;fill-opacity:1;fill-rule:evenodd;stroke:none"
     d="m 409.7586,508.3641 11.5391,15.8867 h 38.8632 l 12.0118,-36.961 -11.5391,-15.8789 -11.7031,15.0039 -21.2891,-6.8906 v 22.3438 z m 0,0"
     id="path349705" />
  <path
     style="fill:#231e30;fill-opacity:1;fill-rule:evenodd;stroke:none"
     d="m 64.493,183.5945 -18.6758,-6.0703 -31.4414,22.8438 12.0117,36.9609 18.6641,6.0664 0.6523,-19.0195 21.2734,-6.9336 -13.1328,-18.0781 z m 0,0"
     id="path349707" />
  <path
     style="fill:#231e30;fill-opacity:1;fill-rule:evenodd;stroke:none"
     d="m 534.7156,243.3992 18.6719,-6.0703 12.0117,-36.9609 -31.4414,-22.8438 -18.668,6.0664 10.6524,15.7696 -13.1328,18.1132 21.25,6.9063 z m 0,0"
     id="path349709" />
  <path
     style="fill:#231e30;fill-opacity:1;fill-rule:evenodd;stroke:none"
     d="M 321.3289,42.6766 V 23.0398 L 289.8875,0.2 258.4461,23.0398 v 19.629 l 18.2891,-5.2579 13.1718,18.086 13.1328,-18.0742 z m 0,0"
     id="path349711" />
  <path
     style="fill:#a31c2b;fill-opacity:1;fill-rule:evenodd;stroke:none"
     d="m 26.3875,237.3289 17.0742,52.5586 1.5899,-46.4922 z m 0,0"
     id="path349713" />
  <path
     style="fill:#a31c2b;fill-opacity:1;fill-rule:evenodd;stroke:none"
     d="m 90.5242,145.0438 -44.707,32.4804 18.2539,6.6914 z m 0,0"
     id="path349715" />
  <path
     style="fill:#a31c2b;fill-opacity:1;fill-rule:evenodd;stroke:none"
     d="m 64.0711,184.2156 -10.2266,15.1485 13.1524,18.1015 50.1953,-16.3086 z m 0,0"
     id="path349717" />
  <path
     style="fill:#a31c2b;fill-opacity:1;fill-rule:evenodd;stroke:none"
     d="m 66.9969,217.4656 -21.293,6.9102 -0.6523,19.0195 53.3828,17.3438 z m 0,0"
     id="path349719" />
  <path
     style="fill:#a31c2b;fill-opacity:1;fill-rule:evenodd;stroke:none"
     d="m 158.4773,524.2508 h 55.2618 l -43.7266,-15.8789 z m 0,0"
     id="path349721" />
  <path
     style="fill:#a31c2b;fill-opacity:1;fill-rule:evenodd;stroke:none"
     d="m 90.5242,434.7352 17.0781,52.5546 12.004,-15.2929 z m 0,0"
     id="path349723" />
  <path
     style="fill:#a31c2b;fill-opacity:1;fill-rule:evenodd;stroke:none"
     d="m 119.6063,471.9969 11.246,14.4101 21.2813,-6.9179 v -52.7774 z m 0,0"
     id="path349725" />
  <path
     style="fill:#a31c2b;fill-opacity:1;fill-rule:evenodd;stroke:none"
     d="m 152.1336,479.4891 -0.01,22.3867 17.8867,6.4961 32.9922,-45.4102 z m 0,0"
     id="path349727" />
  <path
     style="fill:#a31c2b;fill-opacity:1;fill-rule:evenodd;stroke:none"
     d="m 258.4461,23.0438 -44.707,32.4804 44.707,-12.8554 z m 0,0"
     id="path349729" />
  <path
     style="fill:#a31c2b;fill-opacity:1;fill-rule:evenodd;stroke:none"
     d="m 366.0359,55.5242 -44.707,-32.4804 -0.7226,19.4257 z m 0,0"
     id="path349731" />
  <path
     style="fill:#a31c2b;fill-opacity:1;fill-rule:evenodd;stroke:none"
     d="m 320.6063,42.4695 -17.5665,-5.0468 -13.1523,18.1054 31.0234,42.6953 z m 0,0"
     id="path349733" />
  <path
     style="fill:#a31c2b;fill-opacity:1;fill-rule:evenodd;stroke:none"
     d="m 289.8875,55.5281 -13.1523,-18.1172 -18.2891,5.2579 v 56.1289 z m 0,0"
     id="path349735" />
  <path
     style="fill:#a31c2b;fill-opacity:1;fill-rule:evenodd;stroke:none"
     d="m 472.1727,487.2898 17.0781,-52.5585 -28.6133,36.6796 z m 0,0"
     id="path349737" />
  <path
     style="fill:#a31c2b;fill-opacity:1;fill-rule:evenodd;stroke:none"
     d="m 366.0398,524.2508 h 55.2579 l -10.8321,-16.1406 z m 0,0"
     id="path349739" />
  <path
     style="fill:#a31c2b;fill-opacity:1;fill-rule:evenodd;stroke:none"
     d="m 410.4656,508.1102 17.1797,-6.2461 v -22.375 L 377.45,463.1805 Z m 0,0"
     id="path349741" />
  <path
     style="fill:#a31c2b;fill-opacity:1;fill-rule:evenodd;stroke:none"
     d="m 427.6414,479.4891 21.2891,6.9257 11.707,-15.0039 -32.9922,-45.4101 z m 0,0"
     id="path349743" />
  <path
     style="fill:#a31c2b;fill-opacity:1;fill-rule:evenodd;stroke:none"
     d="m 533.9578,177.5242 -44.707,-32.4804 26.039,38.5468 z m 0,0"
     id="path349745" />
  <path
     style="fill:#a31c2b;fill-opacity:1;fill-rule:evenodd;stroke:none"
     d="m 536.3133,289.8875 17.0742,-52.5586 -18.6992,5.3164 z m 0,0"
     id="path349747" />
  <path
     style="fill:#a31c2b;fill-opacity:1;fill-rule:evenodd;stroke:none"
     d="m 534.6883,242.6453 -0.6289,-18.2656 -21.2813,-6.9141 -31.0195,42.6992 z m 0,0"
     id="path349749" />
  <path
     style="fill:#a31c2b;fill-opacity:1;fill-rule:evenodd;stroke:none"
     d="m 512.7781,217.4656 13.1641,-18.1054 -10.6524,-15.7696 -53.3828,17.3438 z m 0,0"
     id="path349751" />
  <path
     style="fill:#e66100;fill-opacity:1;fill-rule:evenodd;stroke:none"
     d="m 152.1336,153.7742 v 36.0274 l -34.2656,11.1328 34.2656,11.1328 -0.086,33.3164 33.2695,-45.9336 z m 0,0"
     id="path349753" />
  <path
     style="fill:#e66100;fill-opacity:1;fill-rule:evenodd;stroke:none"
     d="M 152.0477,245.3836 132.7,271.8719 98.4383,260.7391 l 21.1719,29.1445 -21.1758,29.1523 53.6992,-17.4492 z m 0,0"
     id="path349755" />
  <path
     style="fill:#e66100;fill-opacity:1;fill-rule:evenodd;stroke:none"
     d="m 117.868,378.8406 34.2656,11.1328 v 36.0274 l 21.1758,-29.1485 31.6601,10.375 -33.4062,-45.8359 z m 0,0"
     id="path349757" />
  <path
     style="fill:#e66100;fill-opacity:1;fill-rule:evenodd;stroke:none"
     d="m 204.9695,407.2273 19.211,26.586 -21.1758,29.1484 34.2617,-11.1328 21.1797,29.1484 v -56.4609 z m 0,0"
     id="path349759" />
  <path
     style="fill:#e66100;fill-opacity:1;fill-rule:evenodd;stroke:none"
     d="m 376.7703,116.8133 -34.2656,11.1328 -21.1758,-29.1445 v 36.0273 l -31.7109,10.2149 53.9648,17.4453 z m 0,0"
     id="path349761" />
  <path
     style="fill:#e66100;fill-opacity:1;fill-rule:evenodd;stroke:none"
     d="M 289.618,145.0438 258.4461,134.8289 V 98.8016 l -21.1758,29.1406 -34.2656,-11.1289 33.1875,45.6758 z m 0,0"
     id="path349763" />
  <path
     style="fill:#e66100;fill-opacity:1;fill-rule:evenodd;stroke:none"
     d="m 321.3289,480.9734 21.1758,-29.1445 34.2656,11.1328 -21.1758,-29.1484 19.6485,-26.9024 -53.9141,17.6055 z m 0,0"
     id="path349765" />
  <path
     style="fill:#e66100;fill-opacity:1;fill-rule:evenodd;stroke:none"
     d="m 375.243,406.9109 31.2226,-10.0586 21.1758,29.1485 v -36.0235 l 34.2617,-11.1367 -53.6953,-17.4492 z m 0,0"
     id="path349767" />
  <path
     style="fill:#e66100;fill-opacity:1;fill-rule:evenodd;stroke:none"
     d="m 481.3367,319.0359 -21.1758,-29.1484 21.1758,-29.1445 -34.2617,11.1328 -19.5156,-27.0039 0.082,56.7148 z m 0,0"
     id="path349769" />
  <path
     style="fill:#e66100;fill-opacity:1;fill-rule:evenodd;stroke:none"
     d="m 427.5594,244.8719 0.082,-32.8047 34.2656,-11.1328 -34.2617,-11.1328 V 153.7742 L 394.4578,199.45 Z m 0,0"
     id="path349771" />
  <path
     style="fill:#a31c2b;fill-opacity:1;fill-rule:evenodd;stroke:none"
     d="M 213.7391,55.5242 90.5242,145.0438 132.7,127.0281 152.1336,153.7742 V 100.282 l 50.8711,16.5274 -19.4297,-26.7422 z m 0,0"
     id="path349773" />
  <path
     style="fill:#a31c2b;fill-opacity:1;fill-rule:evenodd;stroke:none"
     d="M 43.4617,289.8875 90.5242,434.7352 86.4227,389.0555 117.868,378.8406 66.993,362.3094 98.4305,319.0359 66.993,329.2508 Z m 0,0"
     id="path349775" />
  <path
     style="fill:#a31c2b;fill-opacity:1;fill-rule:evenodd;stroke:none"
     d="m 489.2508,145.0438 -123.2149,-89.5196 30.168,34.543 -19.4336,26.7461 50.8711,-16.5313 0.01,53.4883 19.4258,-26.7422 z m 0,0"
     id="path349777" />
  <path
     style="fill:#a31c2b;fill-opacity:1;fill-rule:evenodd;stroke:none"
     d="m 213.7391,524.2508 h 152.3007 l -44.7109,-10.2149 v -33.0625 l -31.4414,43.2774 -31.4414,-43.2695 v 33.0546 z m 0,0"
     id="path349779" />
  <path
     style="fill:#a31c2b;fill-opacity:1;fill-rule:evenodd;stroke:none"
     d="m 489.2469,434.7313 47.0664,-144.8438 -23.5313,39.3633 -31.4453,-10.2149 31.4453,43.2735 -50.8672,16.5312 31.4336,10.2149 z m 0,0"
     id="path349781" />
  <path
     style="fill:#f8e35c;fill-opacity:1;fill-rule:evenodd;stroke:none"
     d="m 213.7391,238.5711 25.2773,34.7891 -40.8984,13.2851 15.6211,-21.4961 z m 0,0"
     id="path349783" />
  <path
     style="fill:#f8e35c;fill-opacity:1;fill-rule:evenodd;stroke:none"
     d="m 217.5477,346.45 40.8984,-13.2891 v 43.0039 l -15.6211,-21.5 z m 0,0"
     id="path349785" />
  <path
     style="fill:#f8e35c;fill-opacity:1;fill-rule:evenodd;stroke:none"
     d="m 315.1648,201.6063 -25.2773,34.789 -25.2734,-34.7851 25.2695,8.2109 z m 0,0"
     id="path349787" />
  <path
     style="fill:#f8e35c;fill-opacity:1;fill-rule:evenodd;stroke:none"
     d="m 321.3289,376.1648 v -43.0039 l 40.8945,13.2891 -25.2695,8.2109 z m 0,0"
     id="path349789" />
  <path
     style="fill:#f8e35c;fill-opacity:1;fill-rule:evenodd;stroke:none"
     d="m 381.657,286.6453 -40.8984,-13.289 25.2773,-34.7852 v 26.5703 z m 0,0"
     id="path349791" />
  <path
     style="fill:#f8f06b;fill-opacity:1;fill-rule:evenodd;stroke:none"
     d="m 289.8875,236.3953 19.4297,26.7461 -19.4297,-6.3125 -19.4336,6.3125 z m 0,0"
     id="path349793" />
  <path
     style="fill:#f8f06b;fill-opacity:1;fill-rule:evenodd;stroke:none"
     d="m 239.0125,273.3602 31.4414,-10.2188 -12.0078,16.5274 v 20.4375 z m 0,0"
     id="path349795" />
  <path
     style="fill:#f8f06b;fill-opacity:1;fill-rule:evenodd;stroke:none"
     d="m 340.7625,273.3563 -19.4336,26.746 v -20.4296 l -12.0117,-16.5313 z m 0,0"
     id="path349797" />
  <path
     style="fill:#f8f06b;fill-opacity:1;fill-rule:evenodd;stroke:none"
     d="m 258.4461,333.1648 v -33.0585 l 12.0078,16.5273 19.4336,6.3125 z m 0,0"
     id="path349799" />
  <path
     style="fill:#f8f06b;fill-opacity:1;fill-rule:evenodd;stroke:none"
     d="m 321.3289,333.1609 -31.4414,-10.2148 19.4297,-6.3125 12.0117,-16.5313 z m 0,0"
     id="path349801" />
  <path
     style="fill:#f5d12b;fill-opacity:1;fill-rule:evenodd;stroke:none"
     d="m 213.7391,185.0789 -14.5469,-4.7266 -13.875,19.0977 28.4219,39.1211 z m 0,0"
     id="path349803" />
  <path
     style="fill:#f5d12b;fill-opacity:1;fill-rule:evenodd;stroke:none"
     d="m 213.7391,185.0789 v -15.293 l 22.4531,-7.2968 28.418,39.1211 z m 0,0"
     id="path349805" />
  <path
     style="fill:#f5d12b;fill-opacity:1;fill-rule:evenodd;stroke:none"
     d="m 166.6766,329.9227 -8.9883,12.3711 13.875,19.0976 45.9844,-14.9414 z m 0,0"
     id="path349807" />
  <path
     style="fill:#f5d12b;fill-opacity:1;fill-rule:evenodd;stroke:none"
     d="m 166.6766,329.9227 -14.543,-4.7266 v -23.6094 l 45.9844,-14.9414 z m 0,0"
     id="path349809" />
  <path
     style="fill:#f5d12b;fill-opacity:1;fill-rule:evenodd;stroke:none"
     d="m 366.0359,185.0789 v -15.293 l -22.4531,-7.2968 -28.418,39.1172 z m 0,0"
     id="path349811" />
  <path
     style="fill:#f5d12b;fill-opacity:1;fill-rule:evenodd;stroke:none"
     d="m 366.0359,185.0789 14.543,-4.7266 13.8789,19.0977 -28.4219,39.1211 z m 0,0"
     id="path349813" />
  <path
     style="fill:#f5d12b;fill-opacity:1;fill-rule:evenodd;stroke:none"
     d="m 289.8875,419.4383 8.9922,12.3711 22.4492,-7.293 v -48.3516 z m 0,0"
     id="path349815" />
  <path
     style="fill:#f5d12b;fill-opacity:1;fill-rule:evenodd;stroke:none"
     d="m 289.8875,419.4383 -8.9883,12.375 -22.4531,-7.2969 v -48.3516 z m 0,0"
     id="path349817" />
  <path
     style="fill:#f5d12b;fill-opacity:1;fill-rule:evenodd;stroke:none"
     d="m 413.0984,329.9188 14.543,-4.7266 V 301.5867 L 381.657,286.6453 Z m 0,0"
     id="path349819" />
  <path
     style="fill:#f5d12b;fill-opacity:1;fill-rule:evenodd;stroke:none"
     d="m 413.0984,329.9188 8.9883,12.375 -13.875,19.0976 -45.9883,-14.9414 z m 0,0"
     id="path349821" />
</svg>
